<svg width="48" height="48" viewBox="0 0 48 48" fill="none" xmlns="http://www.w3.org/2000/svg">
<path d="M44.1526 20.1503H33.2929L40.9725 12.4707C42.4752 10.9679 42.4752 8.53035 40.9725 7.02758C39.4697 5.52482 37.0321 5.52482 35.5294 7.02758L27.8498 14.7071V3.8475C27.8498 1.72153 26.126 0 24.0023 0C21.8785 0 20.1547 1.72374 20.1547 3.8475V14.7071L12.4752 7.02758C10.9724 5.52482 8.53486 5.52482 7.0321 7.02758C5.52934 8.53035 5.52934 10.9679 7.0321 12.4707L14.7117 20.1503H3.85196C1.72599 20.1503 0.0045166 21.874 0.0045166 23.9978C0.0045166 26.1215 1.7282 27.8475 3.85196 27.8475H14.7117L7.0321 35.5271C5.52934 37.0298 5.52934 39.4674 7.0321 40.9702C8.53486 42.4729 10.9724 42.4729 12.4752 40.9702L20.1547 33.2906V44.1502C20.1547 46.2762 21.8785 48 24.0023 48C26.126 48 27.8498 46.2762 27.8498 44.1502V33.2906L35.5294 40.9702C37.0321 42.4729 39.4697 42.4729 40.9725 40.9702C42.4752 39.4674 42.4752 37.0298 40.9725 35.5271L33.2929 27.8475H44.1526C46.2786 27.8475 48 26.1237 48 23.9978C48 21.8718 46.2764 20.1503 44.1526 20.1503Z" fill="#700000"/>
</svg>
