<svg width="189" height="42" viewBox="0 0 189 42" fill="none" xmlns="http://www.w3.org/2000/svg">
<path d="M28.4433 34.2812C29.1244 33.385 30.4759 30.6965 30.4759 30.6965C30.4759 30.6965 29.9741 33.8152 29.3647 35.1774C28.7553 36.5396 27.7874 37.2566 26.9629 38.1886C26.1384 39.1206 24.597 40.196 23.3781 40.8054C22.1593 41.4149 19.65 41.8809 19.2557 41.9167C18.8614 41.9526 17.3916 42.311 16.8898 41.1998C16.3879 40.0885 18.2161 39.4074 19.2557 39.1565C20.2953 38.9055 21.9801 38.5112 22.6253 38.2961C23.2706 38.081 24.8227 37.4716 25.4679 37.0056C26.1132 36.5396 27.7622 35.1774 28.4433 34.2812Z" fill="white"/>
<path d="M13.2679 8.93711C11.7623 10.0125 11.4755 9.97668 10.1133 11.5898C8.75111 13.2029 8.8945 12.9162 8.1417 14.8161C7.3889 16.716 7.63984 16.2858 7.24551 17.5763C6.85119 18.8669 6.85119 18.9385 6.7078 20.3724C6.56441 21.8063 6.81534 22.9487 6.81534 23.0252C6.81534 23.1685 6.27763 21.3403 6.27763 20.1574C6.27763 18.9744 6.7078 15.8557 6.92289 14.9953C7.13797 14.135 7.53682 11.8877 8.57187 10.0125C9.60692 8.13737 10.7944 6.35609 12.3717 5.06559C13.949 3.77509 17.8877 1.82822 19.0348 1.32635C20.1819 0.824485 23.341 0.0828037 24.7391 0.0111027C26.1371 -0.0605983 27.7861 0.226176 28.3238 0.548807C28.8615 0.871438 29.686 0.94314 29.8652 2.62797C30.0445 4.3128 27.4276 4.99389 27.0691 5.06558C26.7107 5.13728 21.5252 5.25 18.5733 6.42779C15.6214 7.60559 14.7735 7.86168 13.2679 8.93711Z" fill="white"/>
<path d="M11.691 32.1663C12.8381 33.0624 15.7059 34.9624 15.7059 34.9624C15.7059 34.9624 11.691 32.9191 10.0062 31.7002C8.32132 30.4814 6.34971 28.5457 5.45353 27.6136C4.55735 26.6816 2.58574 24.3515 1.90464 23.061C1.22354 21.7705 0.793364 20.1574 0.470738 18.7952C0.148112 17.433 -0.0311258 15.7481 0.00472166 14.7803C0.0405691 13.8124 0.291501 11.0163 0.470738 10.4786C0.649975 9.94086 1.36692 8.6145 2.47819 8.6145C3.58946 8.6145 4.09133 9.65408 4.09133 10.2635C4.09133 10.8729 3.98379 12.3785 3.87624 14.0275C3.83834 14.6087 3.87624 16.3217 3.87624 17.433C3.87624 18.5442 3.80455 18.9386 4.30641 21.4479C4.80828 23.9572 5.66862 25.176 6.92328 27.1476C8.17793 29.1192 10.5439 31.2701 11.691 32.1663Z" fill="white"/>
<path d="M22.3728 35.9302C23.986 35.4642 27.6065 33.3492 27.6065 33.3492C27.6065 33.3492 22.803 36.7189 21.62 37.149C20.4371 37.5792 17.4259 38.0811 15.8844 38.0094C14.343 37.9377 10.9733 37.4358 9.79037 37.149C8.6074 36.8623 6.59996 36.217 5.70377 35.6076C4.80758 34.9982 3.44538 34.2454 2.58504 33.3492C1.7247 32.453 1.43793 32.238 0.936064 31.5569C0.434196 30.8758 0.00402534 30.1588 1.15114 29.0475C2.29826 27.9363 3.80385 29.5135 3.80385 29.5135C3.80385 29.5135 5.84715 31.521 7.42444 32.6681C9.00173 33.8153 9.86207 34.2095 11.4394 35.034C13.0166 35.8586 14.5222 36.3245 16.6731 36.4679C18.8239 36.6114 20.7597 36.3962 22.3728 35.9302Z" fill="white"/>
<path d="M22.8733 9.51562V13.8672H23.178C23.6467 13.8672 24.0295 13.7969 24.3264 13.6562C24.6233 13.5156 24.8733 13.2786 25.0764 12.9453C25.2847 12.612 25.4201 12.1615 25.4826 11.5938H25.7561V16.9141H25.4826C25.3837 15.9089 25.1129 15.2474 24.6701 14.9297C24.2326 14.6068 23.7352 14.4453 23.178 14.4453H22.8733V17.6875C22.8733 18.2292 22.9019 18.5677 22.9592 18.7031C23.0217 18.8385 23.1389 18.9583 23.3108 19.0625C23.4879 19.1615 23.7248 19.2109 24.0217 19.2109H24.3733V19.5H18.8342V19.2109H19.1858C19.4931 19.2109 19.7405 19.1562 19.928 19.0469C20.0634 18.974 20.1675 18.849 20.2405 18.6719C20.2977 18.5469 20.3264 18.2188 20.3264 17.6875V10.7188C20.3264 10.1771 20.2977 9.83854 20.2405 9.70312C20.1832 9.56771 20.066 9.45052 19.8889 9.35156C19.717 9.2474 19.4826 9.19531 19.1858 9.19531H18.8342V8.90625H27.7717V11.9453H27.4514C27.3785 11.2318 27.191 10.7031 26.8889 10.3594C26.592 10.0156 26.1597 9.77344 25.592 9.63281C25.2795 9.55469 24.7014 9.51562 23.8576 9.51562H22.8733ZM32.5061 14.6719V17.6406C32.5061 18.2135 32.5399 18.5755 32.6076 18.7266C32.6806 18.8724 32.8056 18.9896 32.9826 19.0781C33.1597 19.1667 33.4905 19.2109 33.9748 19.2109V19.5H28.553V19.2109C29.0425 19.2109 29.3733 19.1667 29.5451 19.0781C29.7222 18.9844 29.8446 18.8646 29.9123 18.7188C29.9852 18.5729 30.0217 18.2135 30.0217 17.6406V10.7656C30.0217 10.1927 29.9852 9.83333 29.9123 9.6875C29.8446 9.53646 29.7222 9.41667 29.5451 9.32812C29.3681 9.23958 29.0373 9.19531 28.553 9.19531V8.90625H33.4748C34.7561 8.90625 35.6936 8.99479 36.2873 9.17188C36.8811 9.34896 37.3655 9.67708 37.7405 10.1562C38.1155 10.6302 38.303 11.1875 38.303 11.8281C38.303 12.6094 38.0217 13.2552 37.4592 13.7656C37.0998 14.0885 36.5972 14.3307 35.9514 14.4922L38.4983 18.0781C38.8316 18.5417 39.0686 18.8307 39.2092 18.9453C39.4227 19.1068 39.6701 19.1953 39.9514 19.2109V19.5H36.6155L33.2014 14.6719H32.5061ZM32.5061 9.47656V14.1172H32.9514C33.6754 14.1172 34.217 14.0521 34.5764 13.9219C34.9358 13.7865 35.217 13.5469 35.4201 13.2031C35.6285 12.8542 35.7326 12.401 35.7326 11.8438C35.7326 11.0365 35.5425 10.4401 35.1623 10.0547C34.7873 9.66927 34.1806 9.47656 33.342 9.47656H32.5061ZM46.4748 16.4844H42.7326L42.2873 17.5156C42.1415 17.8594 42.0686 18.1432 42.0686 18.3672C42.0686 18.6641 42.1884 18.8828 42.428 19.0234C42.5686 19.1068 42.9149 19.1693 43.467 19.2109V19.5H39.9436V19.2109C40.3238 19.1536 40.6363 18.9974 40.8811 18.7422C41.1259 18.4818 41.428 17.9479 41.7873 17.1406L45.5764 8.6875H45.7248L49.5451 17.375C49.9097 18.1979 50.2092 18.7161 50.4436 18.9297C50.6207 19.0911 50.8707 19.1849 51.1936 19.2109V19.5H46.0686V19.2109H46.2795C46.691 19.2109 46.98 19.1536 47.1467 19.0391C47.2613 18.9557 47.3186 18.8359 47.3186 18.6797C47.3186 18.5859 47.303 18.4896 47.2717 18.3906C47.2613 18.3438 47.1832 18.1484 47.0373 17.8047L46.4748 16.4844ZM46.2092 15.9062L44.6311 12.2578L43.0061 15.9062H46.2092ZM62.4201 8.66406V12.3984H62.1311C61.7821 11.3776 61.2587 10.6016 60.5608 10.0703C59.8629 9.53906 59.0998 9.27344 58.2717 9.27344C57.48 9.27344 56.8212 9.4974 56.2951 9.94531C55.7691 10.388 55.3967 11.0078 55.178 11.8047C54.9592 12.6016 54.8498 13.4193 54.8498 14.2578C54.8498 15.2734 54.9696 16.1641 55.2092 16.9297C55.4488 17.6953 55.8342 18.2578 56.3655 18.6172C56.9019 18.9766 57.5373 19.1562 58.2717 19.1562C58.5269 19.1562 58.7873 19.1302 59.053 19.0781C59.3238 19.0208 59.5998 18.9401 59.8811 18.8359V16.6328C59.8811 16.2161 59.8524 15.9479 59.7951 15.8281C59.7379 15.7031 59.6181 15.5911 59.4358 15.4922C59.2587 15.3932 59.0425 15.3438 58.7873 15.3438H58.5139V15.0547H63.6623V15.3438C63.2717 15.3698 62.9983 15.4245 62.842 15.5078C62.691 15.5859 62.5738 15.7188 62.4905 15.9062C62.4436 16.0052 62.4201 16.2474 62.4201 16.6328V18.8359C61.7431 19.138 61.0373 19.3646 60.303 19.5156C59.5738 19.6719 58.816 19.75 58.0295 19.75C57.0243 19.75 56.1884 19.6146 55.5217 19.3438C54.8602 19.0677 54.2743 18.7083 53.7639 18.2656C53.2587 17.8177 52.8629 17.3151 52.5764 16.7578C52.2118 16.0391 52.0295 15.2344 52.0295 14.3438C52.0295 12.75 52.5894 11.4036 53.7092 10.3047C54.829 9.20573 56.2379 8.65625 57.9358 8.65625C58.4618 8.65625 58.9358 8.69792 59.3576 8.78125C59.5868 8.82292 59.9566 8.94271 60.467 9.14062C60.9826 9.33333 61.2873 9.42969 61.3811 9.42969C61.5269 9.42969 61.6623 9.3776 61.7873 9.27344C61.9123 9.16406 62.0269 8.96094 62.1311 8.66406H62.4201ZM74.8733 8.66406V12.3984H74.5842C74.2352 11.3776 73.7118 10.6016 73.0139 10.0703C72.316 9.53906 71.553 9.27344 70.7248 9.27344C69.9332 9.27344 69.2743 9.4974 68.7483 9.94531C68.2222 10.388 67.8498 11.0078 67.6311 11.8047C67.4123 12.6016 67.303 13.4193 67.303 14.2578C67.303 15.2734 67.4227 16.1641 67.6623 16.9297C67.9019 17.6953 68.2873 18.2578 68.8186 18.6172C69.355 18.9766 69.9905 19.1562 70.7248 19.1562C70.98 19.1562 71.2405 19.1302 71.5061 19.0781C71.7769 19.0208 72.053 18.9401 72.3342 18.8359V16.6328C72.3342 16.2161 72.3056 15.9479 72.2483 15.8281C72.191 15.7031 72.0712 15.5911 71.8889 15.4922C71.7118 15.3932 71.4957 15.3438 71.2405 15.3438H70.967V15.0547H76.1155V15.3438C75.7248 15.3698 75.4514 15.4245 75.2951 15.5078C75.1441 15.5859 75.0269 15.7188 74.9436 15.9062C74.8967 16.0052 74.8733 16.2474 74.8733 16.6328V18.8359C74.1962 19.138 73.4905 19.3646 72.7561 19.5156C72.0269 19.6719 71.2691 19.75 70.4826 19.75C69.4774 19.75 68.6415 19.6146 67.9748 19.3438C67.3134 19.0677 66.7274 18.7083 66.217 18.2656C65.7118 17.8177 65.316 17.3151 65.0295 16.7578C64.6649 16.0391 64.4826 15.2344 64.4826 14.3438C64.4826 12.75 65.0425 11.4036 66.1623 10.3047C67.2821 9.20573 68.691 8.65625 70.3889 8.65625C70.9149 8.65625 71.3889 8.69792 71.8108 8.78125C72.0399 8.82292 72.4097 8.94271 72.9201 9.14062C73.4358 9.33333 73.7405 9.42969 73.8342 9.42969C73.98 9.42969 74.1155 9.3776 74.2405 9.27344C74.3655 9.16406 74.48 8.96094 74.5842 8.66406H74.8733ZM86.1467 19.2109V19.5H80.6076V19.2109H80.9592C81.2665 19.2109 81.5139 19.1562 81.7014 19.0469C81.8368 18.974 81.941 18.849 82.0139 18.6719C82.0712 18.5469 82.0998 18.2188 82.0998 17.6875V10.7188C82.0998 10.1771 82.0712 9.83854 82.0139 9.70312C81.9566 9.56771 81.8394 9.45052 81.6623 9.35156C81.4905 9.2474 81.2561 9.19531 80.9592 9.19531H80.6076V8.90625H86.1467V9.19531H85.7951C85.4879 9.19531 85.2405 9.25 85.053 9.35938C84.9175 9.43229 84.8108 9.55729 84.7326 9.73438C84.6754 9.85938 84.6467 10.1875 84.6467 10.7188V17.6875C84.6467 18.2292 84.6754 18.5677 84.7326 18.7031C84.7951 18.8385 84.9123 18.9583 85.0842 19.0625C85.2613 19.1615 85.4983 19.2109 85.7951 19.2109H86.1467ZM90.5061 8.90625L95.7326 15.4766V10.9219C95.7326 10.2865 95.6415 9.85677 95.4592 9.63281C95.2092 9.33073 94.7899 9.1849 94.2014 9.19531V8.90625H97.7014V9.19531C97.2535 9.2526 96.9514 9.32812 96.7951 9.42188C96.6441 9.51042 96.5243 9.65885 96.4358 9.86719C96.3524 10.0703 96.3108 10.4219 96.3108 10.9219V19.7422H96.0451L88.8811 10.9219V17.6562C88.8811 18.2656 89.0191 18.6771 89.2951 18.8906C89.5764 19.1042 89.8967 19.2109 90.2561 19.2109H90.5061V19.5H86.7483V19.2109C87.3316 19.2057 87.7379 19.0859 87.967 18.8516C88.1962 18.6172 88.3108 18.2188 88.3108 17.6562V10.1797L88.0842 9.89844C87.8602 9.61719 87.6623 9.43229 87.4905 9.34375C87.3186 9.25521 87.0712 9.20573 86.7483 9.19531V8.90625H90.5061ZM109.475 8.90625V9.19531C109.089 9.25781 108.746 9.46354 108.444 9.8125C108.225 10.0729 107.899 10.6849 107.467 11.6484L103.819 19.7422H103.561L99.928 11.3203C99.4905 10.3047 99.1962 9.70833 99.0451 9.53125C98.8993 9.35417 98.6207 9.24219 98.2092 9.19531V8.90625H103.287V9.19531H103.115C102.657 9.19531 102.345 9.2526 102.178 9.36719C102.058 9.44531 101.998 9.5599 101.998 9.71094C101.998 9.80469 102.019 9.91667 102.061 10.0469C102.102 10.1719 102.243 10.513 102.483 11.0703L104.74 16.3438L106.834 11.6484C107.084 11.0807 107.238 10.7005 107.295 10.5078C107.352 10.3151 107.381 10.151 107.381 10.0156C107.381 9.85938 107.339 9.72135 107.256 9.60156C107.173 9.48177 107.05 9.39062 106.889 9.32812C106.665 9.23958 106.368 9.19531 105.998 9.19531V8.90625H109.475ZM114.006 9.51562V13.8281H114.217C114.889 13.8281 115.376 13.6172 115.678 13.1953C115.98 12.7734 116.173 12.151 116.256 11.3281H116.553V16.875H116.256C116.194 16.2708 116.061 15.776 115.858 15.3906C115.66 15.0052 115.428 14.7474 115.162 14.6172C114.897 14.4818 114.511 14.4141 114.006 14.4141V17.3984C114.006 17.9818 114.03 18.3385 114.076 18.4688C114.128 18.599 114.222 18.7057 114.358 18.7891C114.493 18.8724 114.712 18.9141 115.014 18.9141H115.647C116.636 18.9141 117.428 18.6849 118.022 18.2266C118.621 17.7682 119.05 17.0703 119.311 16.1328H119.6L119.123 19.5H109.967V19.2109H110.319C110.626 19.2109 110.873 19.1562 111.061 19.0469C111.196 18.974 111.3 18.849 111.373 18.6719C111.431 18.5469 111.459 18.2188 111.459 17.6875V10.7188C111.459 10.2396 111.446 9.94531 111.42 9.83594C111.368 9.65365 111.272 9.51302 111.131 9.41406C110.933 9.26823 110.662 9.19531 110.319 9.19531H109.967V8.90625H118.834V12.0391H118.537C118.386 11.2734 118.173 10.724 117.897 10.3906C117.626 10.0573 117.24 9.8125 116.74 9.65625C116.449 9.5625 115.902 9.51562 115.1 9.51562H114.006ZM127.834 8.66406L127.92 12.1953H127.6C127.449 11.3099 127.076 10.599 126.483 10.0625C125.894 9.52083 125.256 9.25 124.569 9.25C124.037 9.25 123.615 9.39323 123.303 9.67969C122.996 9.96094 122.842 10.2865 122.842 10.6562C122.842 10.8906 122.897 11.099 123.006 11.2812C123.157 11.526 123.399 11.7682 123.733 12.0078C123.977 12.1797 124.543 12.4844 125.428 12.9219C126.668 13.5312 127.503 14.1068 127.936 14.6484C128.363 15.1901 128.576 15.8099 128.576 16.5078C128.576 17.3932 128.23 18.1562 127.537 18.7969C126.85 19.4323 125.975 19.75 124.912 19.75C124.579 19.75 124.264 19.7161 123.967 19.6484C123.67 19.5807 123.298 19.4531 122.85 19.2656C122.6 19.1615 122.394 19.1094 122.233 19.1094C122.097 19.1094 121.954 19.1615 121.803 19.2656C121.652 19.3698 121.53 19.5286 121.436 19.7422H121.147V15.7422H121.436C121.665 16.8672 122.105 17.7266 122.756 18.3203C123.412 18.9089 124.118 19.2031 124.873 19.2031C125.457 19.2031 125.92 19.0443 126.264 18.7266C126.613 18.4089 126.787 18.0391 126.787 17.6172C126.787 17.3672 126.72 17.125 126.584 16.8906C126.454 16.6562 126.253 16.4349 125.983 16.2266C125.712 16.013 125.233 15.737 124.545 15.3984C123.582 14.9245 122.889 14.5208 122.467 14.1875C122.045 13.8542 121.72 13.4818 121.49 13.0703C121.266 12.6589 121.155 12.2057 121.155 11.7109C121.155 10.8672 121.464 10.1484 122.084 9.55469C122.704 8.96094 123.485 8.66406 124.428 8.66406C124.772 8.66406 125.105 8.70573 125.428 8.78906C125.673 8.85156 125.97 8.96875 126.319 9.14062C126.673 9.30729 126.92 9.39062 127.061 9.39062C127.196 9.39062 127.303 9.34896 127.381 9.26562C127.459 9.18229 127.532 8.98177 127.6 8.66406H127.834ZM139.319 8.90625V11.7734H139.037C138.871 11.112 138.686 10.638 138.483 10.3516C138.28 10.0599 138.001 9.82812 137.647 9.65625C137.449 9.5625 137.102 9.51562 136.608 9.51562H135.819V17.6875C135.819 18.2292 135.847 18.5677 135.905 18.7031C135.967 18.8385 136.084 18.9583 136.256 19.0625C136.433 19.1615 136.673 19.2109 136.975 19.2109H137.326V19.5H131.78V19.2109H132.131C132.438 19.2109 132.686 19.1562 132.873 19.0469C133.009 18.974 133.115 18.849 133.194 18.6719C133.251 18.5469 133.28 18.2188 133.28 17.6875V9.51562H132.514C131.8 9.51562 131.282 9.66667 130.959 9.96875C130.506 10.3906 130.22 10.9922 130.1 11.7734H129.803V8.90625H139.319ZM147.522 15.8906L150.397 8.90625H154.709V9.19531H154.365C154.053 9.19531 153.803 9.25 153.615 9.35938C153.485 9.43229 153.381 9.55469 153.303 9.72656C153.246 9.85156 153.217 10.1771 153.217 10.7031V17.6875C153.217 18.2292 153.246 18.5677 153.303 18.7031C153.36 18.8385 153.477 18.9583 153.655 19.0625C153.832 19.1615 154.069 19.2109 154.365 19.2109H154.709V19.5H149.178V19.2109H149.522C149.834 19.2109 150.084 19.1562 150.272 19.0469C150.402 18.974 150.506 18.849 150.584 18.6719C150.641 18.5469 150.67 18.2188 150.67 17.6875V9.83594L146.608 19.5H146.42L142.295 9.90625V17.3672C142.295 17.888 142.308 18.2083 142.334 18.3281C142.402 18.5885 142.548 18.8021 142.772 18.9688C143.001 19.1302 143.358 19.2109 143.842 19.2109V19.5H140.217V19.2109H140.326C140.561 19.2161 140.78 19.1797 140.983 19.1016C141.186 19.0182 141.339 18.9089 141.444 18.7734C141.548 18.638 141.628 18.4479 141.686 18.2031C141.696 18.1458 141.701 17.8802 141.701 17.4062V10.7031C141.701 10.1667 141.673 9.83333 141.615 9.70312C141.558 9.56771 141.441 9.45052 141.264 9.35156C141.087 9.2474 140.85 9.19531 140.553 9.19531H140.217V8.90625H144.545L147.522 15.8906ZM159.365 9.51562V13.8281H159.576C160.248 13.8281 160.735 13.6172 161.037 13.1953C161.339 12.7734 161.532 12.151 161.615 11.3281H161.912V16.875H161.615C161.553 16.2708 161.42 15.776 161.217 15.3906C161.019 15.0052 160.787 14.7474 160.522 14.6172C160.256 14.4818 159.871 14.4141 159.365 14.4141V17.3984C159.365 17.9818 159.389 18.3385 159.436 18.4688C159.488 18.599 159.582 18.7057 159.717 18.7891C159.852 18.8724 160.071 18.9141 160.373 18.9141H161.006C161.996 18.9141 162.787 18.6849 163.381 18.2266C163.98 17.7682 164.41 17.0703 164.67 16.1328H164.959L164.483 19.5H155.326V19.2109H155.678C155.985 19.2109 156.233 19.1562 156.42 19.0469C156.556 18.974 156.66 18.849 156.733 18.6719C156.79 18.5469 156.819 18.2188 156.819 17.6875V10.7188C156.819 10.2396 156.806 9.94531 156.78 9.83594C156.727 9.65365 156.631 9.51302 156.49 9.41406C156.293 9.26823 156.022 9.19531 155.678 9.19531H155.326V8.90625H164.194V12.0391H163.897C163.746 11.2734 163.532 10.724 163.256 10.3906C162.985 10.0573 162.6 9.8125 162.1 9.65625C161.808 9.5625 161.261 9.51562 160.459 9.51562H159.365ZM169.662 8.90625L174.889 15.4766V10.9219C174.889 10.2865 174.798 9.85677 174.615 9.63281C174.365 9.33073 173.946 9.1849 173.358 9.19531V8.90625H176.858V9.19531C176.41 9.2526 176.108 9.32812 175.951 9.42188C175.8 9.51042 175.681 9.65885 175.592 9.86719C175.509 10.0703 175.467 10.4219 175.467 10.9219V19.7422H175.201L168.037 10.9219V17.6562C168.037 18.2656 168.175 18.6771 168.451 18.8906C168.733 19.1042 169.053 19.2109 169.412 19.2109H169.662V19.5H165.905V19.2109C166.488 19.2057 166.894 19.0859 167.123 18.8516C167.352 18.6172 167.467 18.2188 167.467 17.6562V10.1797L167.24 9.89844C167.016 9.61719 166.819 9.43229 166.647 9.34375C166.475 9.25521 166.227 9.20573 165.905 9.19531V8.90625H169.662ZM187.334 8.90625V11.7734H187.053C186.886 11.112 186.701 10.638 186.498 10.3516C186.295 10.0599 186.016 9.82812 185.662 9.65625C185.464 9.5625 185.118 9.51562 184.623 9.51562H183.834V17.6875C183.834 18.2292 183.863 18.5677 183.92 18.7031C183.983 18.8385 184.1 18.9583 184.272 19.0625C184.449 19.1615 184.688 19.2109 184.99 19.2109H185.342V19.5H179.795V19.2109H180.147C180.454 19.2109 180.701 19.1562 180.889 19.0469C181.024 18.974 181.131 18.849 181.209 18.6719C181.266 18.5469 181.295 18.2188 181.295 17.6875V9.51562H180.53C179.816 9.51562 179.298 9.66667 178.975 9.96875C178.522 10.3906 178.235 10.9922 178.115 11.7734H177.819V8.90625H187.334Z" fill="white"/>
<path d="M24.385 30.5L21.3147 23.8145V29.123C21.3147 29.6113 21.3674 29.916 21.4729 30.0371C21.6174 30.2012 21.8459 30.2832 22.1584 30.2832H22.4397V30.5H19.674V30.2832H19.9553C20.2912 30.2832 20.5295 30.1816 20.6701 29.9785C20.7561 29.8535 20.799 29.5684 20.799 29.123V23.9316C20.799 23.5801 20.76 23.3262 20.6819 23.1699C20.6272 23.0566 20.5256 22.9629 20.3772 22.8887C20.2326 22.8105 19.9983 22.7715 19.674 22.7715V22.5547H21.924L24.8069 28.7715L27.6428 22.5547H29.8928V22.7715H29.6174C29.2776 22.7715 29.0373 22.873 28.8967 23.0762C28.8108 23.2012 28.7678 23.4863 28.7678 23.9316V29.123C28.7678 29.6113 28.8225 29.916 28.9319 30.0371C29.0764 30.2012 29.3049 30.2832 29.6174 30.2832H29.8928V30.5H26.5178V30.2832H26.799C27.1389 30.2832 27.3772 30.1816 27.5139 29.9785C27.5998 29.8535 27.6428 29.5684 27.6428 29.123V23.8145L24.5783 30.5H24.385ZM44.6408 27.8398H41.5647L41.0256 29.0938C40.8928 29.4023 40.8264 29.6328 40.8264 29.7852C40.8264 29.9062 40.883 30.0137 40.9963 30.1074C41.1135 30.1973 41.3635 30.2559 41.7463 30.2832V30.5H39.2444V30.2832C39.5764 30.2246 39.7912 30.1484 39.8889 30.0547C40.0881 29.8672 40.3088 29.4863 40.551 28.9121L43.3459 22.373H43.551L46.3166 28.9824C46.5393 29.5137 46.7405 29.8594 46.9201 30.0195C47.1037 30.1758 47.3576 30.2637 47.6819 30.2832V30.5H44.5471V30.2832C44.8635 30.2676 45.0764 30.2148 45.1858 30.125C45.299 30.0352 45.3557 29.9258 45.3557 29.7969C45.3557 29.625 45.2776 29.3535 45.1213 28.9824L44.6408 27.8398ZM44.4768 27.4062L43.1291 24.1953L41.7463 27.4062H44.4768ZM56.6643 22.5547H58.8205L63.678 28.5137V23.9316C63.678 23.4434 63.6233 23.1387 63.5139 23.0176C63.3694 22.8535 63.1408 22.7715 62.8283 22.7715H62.553V22.5547H65.3186V22.7715H65.0373C64.7014 22.7715 64.4631 22.873 64.3225 23.0762C64.2365 23.2012 64.1936 23.4863 64.1936 23.9316V30.6289H63.9826L58.7444 24.2305V29.123C58.7444 29.6113 58.7971 29.916 58.9026 30.0371C59.051 30.2012 59.2795 30.2832 59.5881 30.2832H59.8694V30.5H57.1037V30.2832H57.3791C57.719 30.2832 57.9592 30.1816 58.0998 29.9785C58.1858 29.8535 58.2287 29.5684 58.2287 29.123V23.5977C57.9983 23.3281 57.8225 23.1504 57.7014 23.0645C57.5842 22.9785 57.4104 22.8984 57.1799 22.8242C57.0666 22.7891 56.8948 22.7715 56.6643 22.7715V22.5547ZM79.9846 27.8398H76.9084L76.3694 29.0938C76.2365 29.4023 76.1701 29.6328 76.1701 29.7852C76.1701 29.9062 76.2268 30.0137 76.3401 30.1074C76.4573 30.1973 76.7073 30.2559 77.0901 30.2832V30.5H74.5881V30.2832C74.9201 30.2246 75.135 30.1484 75.2326 30.0547C75.4319 29.8672 75.6526 29.4863 75.8948 28.9121L78.6897 22.373H78.8948L81.6604 28.9824C81.883 29.5137 82.0842 29.8594 82.2639 30.0195C82.4475 30.1758 82.7014 30.2637 83.0256 30.2832V30.5H79.8908V30.2832C80.2073 30.2676 80.4201 30.2148 80.5295 30.125C80.6428 30.0352 80.6994 29.9258 80.6994 29.7969C80.6994 29.625 80.6213 29.3535 80.4651 28.9824L79.9846 27.8398ZM79.8205 27.4062L78.4729 24.1953L77.0901 27.4062H79.8205ZM99.5315 22.373L99.7365 24.8809H99.5315C99.3244 24.2559 99.0569 23.7852 98.7287 23.4688C98.2561 23.0117 97.6487 22.7832 96.9065 22.7832C95.8948 22.7832 95.1252 23.1836 94.5979 23.9844C94.1565 24.6602 93.9358 25.4648 93.9358 26.3984C93.9358 27.1562 94.0823 27.8477 94.3752 28.4727C94.6682 29.0977 95.051 29.5566 95.5237 29.8496C96.0002 30.1387 96.4885 30.2832 96.9885 30.2832C97.2815 30.2832 97.5647 30.2461 97.8381 30.1719C98.1115 30.0977 98.3752 29.9883 98.6291 29.8438V27.5469C98.6291 27.1484 98.5979 26.8887 98.5354 26.7676C98.4768 26.6426 98.383 26.5488 98.2541 26.4863C98.1291 26.4199 97.9065 26.3867 97.5862 26.3867V26.1641H100.662V26.3867H100.516C100.211 26.3867 100.002 26.4883 99.8889 26.6914C99.8108 26.8359 99.7717 27.1211 99.7717 27.5469V29.9785C99.3225 30.2207 98.8791 30.3984 98.4416 30.5117C98.0041 30.625 97.5178 30.6816 96.9826 30.6816C95.4475 30.6816 94.2815 30.1895 93.4846 29.2051C92.8869 28.4668 92.5881 27.6152 92.5881 26.6504C92.5881 25.9512 92.7561 25.2812 93.092 24.6406C93.4905 23.8789 94.0373 23.293 94.7326 22.8828C95.3147 22.543 96.0022 22.373 96.7951 22.373C97.0842 22.373 97.3459 22.3965 97.5803 22.4434C97.8186 22.4902 98.1545 22.5938 98.5881 22.7539C98.8069 22.8359 98.9533 22.877 99.0276 22.877C99.1018 22.877 99.1643 22.8438 99.2151 22.7773C99.2698 22.707 99.303 22.5723 99.3147 22.373H99.5315ZM112.346 22.9883V26.1289H114.092C114.545 26.1289 114.848 26.0605 115 25.9238C115.203 25.7441 115.317 25.4277 115.34 24.9746H115.557V27.7402H115.34C115.285 27.3535 115.231 27.1055 115.176 26.9961C115.106 26.8594 114.99 26.752 114.83 26.6738C114.67 26.5957 114.424 26.5566 114.092 26.5566H112.346V29.1758C112.346 29.5273 112.362 29.7422 112.393 29.8203C112.424 29.8945 112.479 29.9551 112.557 30.002C112.635 30.0449 112.783 30.0664 113.002 30.0664H114.35C114.799 30.0664 115.125 30.0352 115.328 29.9727C115.531 29.9102 115.727 29.7871 115.914 29.6035C116.156 29.3613 116.405 28.9961 116.658 28.5078H116.893L116.207 30.5H110.084V30.2832H110.365C110.553 30.2832 110.731 30.2383 110.899 30.1484C111.024 30.0859 111.108 29.9922 111.151 29.8672C111.197 29.7422 111.221 29.4863 111.221 29.0996V23.9375C111.221 23.4336 111.17 23.123 111.069 23.0059C110.928 22.8496 110.694 22.7715 110.365 22.7715H110.084V22.5547H116.207L116.295 24.2949H116.067C115.985 23.877 115.893 23.5898 115.791 23.4336C115.694 23.2773 115.547 23.1582 115.352 23.0762C115.196 23.0176 114.92 22.9883 114.526 22.9883H112.346ZM131.084 30.5L128.014 23.8145V29.123C128.014 29.6113 128.067 29.916 128.172 30.0371C128.317 30.2012 128.545 30.2832 128.858 30.2832H129.139V30.5H126.373V30.2832H126.655C126.99 30.2832 127.229 30.1816 127.369 29.9785C127.455 29.8535 127.498 29.5684 127.498 29.123V23.9316C127.498 23.5801 127.459 23.3262 127.381 23.1699C127.326 23.0566 127.225 22.9629 127.076 22.8887C126.932 22.8105 126.697 22.7715 126.373 22.7715V22.5547H128.623L131.506 28.7715L134.342 22.5547H136.592V22.7715H136.317C135.977 22.7715 135.737 22.873 135.596 23.0762C135.51 23.2012 135.467 23.4863 135.467 23.9316V29.123C135.467 29.6113 135.522 29.916 135.631 30.0371C135.776 30.2012 136.004 30.2832 136.317 30.2832H136.592V30.5H133.217V30.2832H133.498C133.838 30.2832 134.076 30.1816 134.213 29.9785C134.299 29.8535 134.342 29.5684 134.342 29.123V23.8145L131.278 30.5H131.084ZM148.358 22.9883V26.1289H150.104C150.557 26.1289 150.86 26.0605 151.012 25.9238C151.215 25.7441 151.328 25.4277 151.352 24.9746H151.569V27.7402H151.352C151.297 27.3535 151.242 27.1055 151.188 26.9961C151.117 26.8594 151.002 26.752 150.842 26.6738C150.682 26.5957 150.436 26.5566 150.104 26.5566H148.358V29.1758C148.358 29.5273 148.373 29.7422 148.405 29.8203C148.436 29.8945 148.49 29.9551 148.569 30.002C148.647 30.0449 148.795 30.0664 149.014 30.0664H150.362C150.811 30.0664 151.137 30.0352 151.34 29.9727C151.543 29.9102 151.739 29.7871 151.926 29.6035C152.168 29.3613 152.416 28.9961 152.67 28.5078H152.905L152.219 30.5H146.096V30.2832H146.377C146.565 30.2832 146.742 30.2383 146.91 30.1484C147.035 30.0859 147.119 29.9922 147.162 29.8672C147.209 29.7422 147.233 29.4863 147.233 29.0996V23.9375C147.233 23.4336 147.182 23.123 147.08 23.0059C146.94 22.8496 146.705 22.7715 146.377 22.7715H146.096V22.5547H152.219L152.307 24.2949H152.078C151.996 23.877 151.905 23.5898 151.803 23.4336C151.705 23.2773 151.559 23.1582 151.364 23.0762C151.207 23.0176 150.932 22.9883 150.537 22.9883H148.358ZM162.028 22.5547H164.184L169.041 28.5137V23.9316C169.041 23.4434 168.987 23.1387 168.877 23.0176C168.733 22.8535 168.504 22.7715 168.192 22.7715H167.916V22.5547H170.682V22.7715H170.401C170.065 22.7715 169.826 22.873 169.686 23.0762C169.6 23.2012 169.557 23.4863 169.557 23.9316V30.6289H169.346L164.108 24.2305V29.123C164.108 29.6113 164.16 29.916 164.266 30.0371C164.414 30.2012 164.643 30.2832 164.951 30.2832H165.233V30.5H162.467V30.2832H162.742C163.082 30.2832 163.322 30.1816 163.463 29.9785C163.549 29.8535 163.592 29.5684 163.592 29.123V23.5977C163.362 23.3281 163.186 23.1504 163.065 23.0645C162.947 22.9785 162.774 22.8984 162.543 22.8242C162.43 22.7891 162.258 22.7715 162.028 22.7715V22.5547ZM186.801 22.5547L186.889 24.418H186.666C186.623 24.0898 186.565 23.8555 186.49 23.7148C186.369 23.4883 186.207 23.3223 186.004 23.2168C185.805 23.1074 185.541 23.0527 185.213 23.0527H184.094V29.123C184.094 29.6113 184.147 29.916 184.252 30.0371C184.401 30.2012 184.629 30.2832 184.938 30.2832H185.213V30.5H181.844V30.2832H182.125C182.461 30.2832 182.699 30.1816 182.84 29.9785C182.926 29.8535 182.969 29.5684 182.969 29.123V23.0527H182.014C181.643 23.0527 181.379 23.0801 181.223 23.1348C181.02 23.209 180.846 23.3516 180.701 23.5625C180.557 23.7734 180.471 24.0586 180.444 24.418H180.221L180.315 22.5547H186.801Z" fill="white"/>
</svg>
