<svg width="18" height="24" viewBox="0 0 18 24" fill="none" xmlns="http://www.w3.org/2000/svg">
<path d="M16.2527 19.5893C16.6419 19.0772 17.4142 17.5408 17.4142 17.5408C17.4142 17.5408 17.1274 19.323 16.7792 20.1014C16.4309 20.8798 15.8779 21.2895 15.4067 21.8221C14.9356 22.3546 14.0548 22.9692 13.3583 23.3174C12.6618 23.6656 11.228 23.9319 11.0026 23.9524C10.7773 23.9729 9.93744 24.1777 9.65066 23.5427C9.36388 22.9077 10.4086 22.5185 11.0026 22.3751C11.5967 22.2317 12.5594 22.0064 12.9281 21.8835C13.2969 21.7606 14.1838 21.4124 14.5525 21.1461C14.9212 20.8798 15.8635 20.1014 16.2527 19.5893Z" fill="black"/>
<path d="M7.58175 5.10692C6.72142 5.72145 6.55754 5.70096 5.77914 6.62275C5.00074 7.54454 5.08268 7.38067 4.65251 8.46633C4.22234 9.552 4.36573 9.30619 4.1404 10.0436C3.91507 10.7811 3.91507 10.822 3.83314 11.6414C3.7512 12.4608 3.89459 13.1135 3.89459 13.1572C3.89459 13.2392 3.58733 12.1945 3.58733 11.5185C3.58733 10.8425 3.83314 9.06038 3.95604 8.56876C4.07895 8.07714 4.30686 6.79297 4.89832 5.72145C5.48978 4.64992 6.16834 3.63205 7.06965 2.89462C7.97095 2.15719 10.2216 1.0447 10.8771 0.757917C11.5326 0.471134 13.3378 0.0473164 14.1367 0.00634441C14.9356 -0.0346276 15.8779 0.129244 16.1851 0.313604C16.4924 0.497964 16.9635 0.538937 17.066 1.5017C17.1684 2.46446 15.673 2.85365 15.4682 2.89462C15.2633 2.93559 11.3099 3.46818 10.6134 3.67302C9.91696 3.87787 8.44209 4.49239 7.58175 5.10692Z" fill="black"/>
<path d="M6.68045 18.3807C7.33594 18.8928 8.97468 19.9785 8.97468 19.9785C8.97468 19.9785 6.68045 18.8109 5.71769 18.1144C4.75493 17.4179 3.62829 16.3118 3.11619 15.7792C2.60409 15.2466 1.47745 13.9151 1.08825 13.1777C0.69905 12.4403 0.453238 11.5185 0.26888 10.7401C0.0845219 9.96169 -0.0178995 8.99893 0.00258474 8.44585C0.023069 7.89278 0.166459 6.29501 0.26888 5.98774C0.371301 5.68048 0.780985 4.92256 1.416 4.92256C2.05101 4.92256 2.33779 5.5166 2.33779 5.86484C2.33779 6.21307 2.27634 7.07341 2.21488 8.01568C2.19322 8.34783 2.21488 9.32667 2.21488 9.96169C2.21488 10.5967 2.17391 10.822 2.46069 12.2559C2.74747 13.6898 3.2391 14.3863 3.95604 15.5129C4.67299 16.6395 6.02495 17.8686 6.68045 18.3807Z" fill="black"/>
<path d="M12.7848 20.5315C13.7065 20.2653 15.7755 19.0567 15.7755 19.0567C15.7755 19.0567 13.0306 20.9822 12.3546 21.228C11.6786 21.4738 9.95793 21.7606 9.07711 21.7196C8.19628 21.6787 6.27076 21.3919 5.59478 21.228C4.9188 21.0641 3.77169 20.6954 3.25958 20.3472C2.74747 19.999 1.96907 19.5688 1.47745 19.0567C0.985823 18.5446 0.821958 18.4217 0.535176 18.0325C0.248394 17.6433 0.00258249 17.2336 0.658078 16.5986C1.31357 15.9636 2.17391 16.8649 2.17391 16.8649C2.17391 16.8649 3.34151 18.012 4.24282 18.6675C5.14413 19.323 5.63575 19.5483 6.53706 20.0194C7.43837 20.4906 8.2987 20.7569 9.52776 20.8388C10.7568 20.9208 11.863 20.7978 12.7848 20.5315Z" fill="black"/>
</svg>
