<svg width="34" height="40" viewBox="0 0 34 40" fill="none" xmlns="http://www.w3.org/2000/svg">
<g filter="url(#filter0_d_489_1844)">
<path d="M24.2527 27.5893C24.6419 27.0772 25.4142 25.5409 25.4142 25.5409C25.4142 25.5409 25.1274 27.323 24.7792 28.1014C24.4309 28.8798 23.8779 29.2895 23.4067 29.8221C22.9356 30.3547 22.0548 30.9692 21.3583 31.3175C20.6618 31.6657 19.2279 31.932 19.0026 31.9525C18.7773 31.9729 17.9374 32.1778 17.6507 31.5428C17.3639 30.9078 18.4086 30.5186 19.0026 30.3752C19.5967 30.2318 20.5594 30.0065 20.9281 29.8836C21.2969 29.7606 22.1838 29.4124 22.5525 29.1461C22.9212 28.8798 23.8635 28.1014 24.2527 27.5893Z" fill="white"/>
<path d="M15.5818 13.1069C14.7214 13.7214 14.5575 13.701 13.7791 14.6228C13.0007 15.5445 13.0827 15.3807 12.6525 16.4663C12.2223 17.552 12.3657 17.3062 12.1404 18.0436C11.9151 18.7811 11.9151 18.822 11.8331 19.6414C11.7512 20.4608 11.8946 21.1135 11.8946 21.1572C11.8946 21.2392 11.5873 20.1945 11.5873 19.5185C11.5873 18.8425 11.8331 17.0604 11.956 16.5688C12.0789 16.0771 12.3069 14.793 12.8983 13.7214C13.4898 12.6499 14.1683 11.6321 15.0696 10.8946C15.971 10.1572 18.2216 9.0447 18.8771 8.75792C19.5326 8.47113 21.3378 8.04732 22.1367 8.00634C22.9356 7.96537 23.8779 8.12924 24.1851 8.3136C24.4924 8.49796 24.9635 8.53894 25.066 9.5017C25.1684 10.4645 23.673 10.8537 23.4682 10.8946C23.2633 10.9356 19.3099 11.4682 18.6134 11.673C17.917 11.8779 16.4421 12.4924 15.5818 13.1069Z" fill="white"/>
<path d="M14.6804 26.3808C15.3359 26.8929 16.9747 27.9785 16.9747 27.9785C16.9747 27.9785 14.6804 26.8109 13.7177 26.1145C12.7549 25.418 11.6283 24.3118 11.1162 23.7793C10.6041 23.2467 9.47745 21.9152 9.08825 21.1778C8.69905 20.4403 8.45324 19.5185 8.26888 18.7401C8.08452 17.9617 7.9821 16.999 8.00258 16.4459C8.02307 15.8928 8.16646 14.2951 8.26888 13.9878C8.3713 13.6805 8.78099 12.9226 9.416 12.9226C10.051 12.9226 10.3378 13.5167 10.3378 13.8649C10.3378 14.2131 10.2763 15.0735 10.2149 16.0157C10.1932 16.3479 10.2149 17.3267 10.2149 17.9617C10.2149 18.5967 10.1739 18.8221 10.4607 20.256C10.7475 21.6899 11.2391 22.3863 11.956 23.513C12.673 24.6396 14.025 25.8686 14.6804 26.3808Z" fill="white"/>
<path d="M20.7847 28.5315C21.7065 28.2652 23.7754 27.0566 23.7754 27.0566C23.7754 27.0566 21.0306 28.9822 20.3546 29.228C19.6786 29.4738 17.9579 29.7606 17.0771 29.7196C16.1963 29.6786 14.2708 29.3919 13.5948 29.228C12.9188 29.0641 11.7717 28.6954 11.2596 28.3472C10.7475 27.9989 9.96906 27.5688 9.47744 27.0566C8.98582 26.5445 8.82195 26.4216 8.53517 26.0324C8.24839 25.6432 8.00257 25.2335 8.65807 24.5985C9.31357 23.9635 10.1739 24.8648 10.1739 24.8648C10.1739 24.8648 11.3415 26.0119 12.2428 26.6674C13.1441 27.3229 13.6357 27.5483 14.5371 28.0194C15.4384 28.4906 16.2987 28.7568 17.5278 28.8388C18.7568 28.9207 19.863 28.7978 20.7847 28.5315Z" fill="white"/>
</g>
<defs>
<filter id="filter0_d_489_1844" x="0" y="0" width="33.4142" height="40" filterUnits="userSpaceOnUse" color-interpolation-filters="sRGB">
<feFlood flood-opacity="0" result="BackgroundImageFix"/>
<feColorMatrix in="SourceAlpha" type="matrix" values="0 0 0 0 0 0 0 0 0 0 0 0 0 0 0 0 0 0 127 0" result="hardAlpha"/>
<feOffset/>
<feGaussianBlur stdDeviation="4"/>
<feComposite in2="hardAlpha" operator="out"/>
<feColorMatrix type="matrix" values="0 0 0 0 0.945098 0 0 0 0 0.905882 0 0 0 0 0.905882 0 0 0 0.4 0"/>
<feBlend mode="normal" in2="BackgroundImageFix" result="effect1_dropShadow_489_1844"/>
<feBlend mode="normal" in="SourceGraphic" in2="effect1_dropShadow_489_1844" result="shape"/>
</filter>
</defs>
</svg>
