<svg width="36" height="39" viewBox="0 0 36 39" fill="none" xmlns="http://www.w3.org/2000/svg">
<path d="M25.9334 14.9998C25.0246 14.9998 24.1498 15.1453 23.331 15.4142C22.1657 12.6907 19.9937 10.5004 17.283 9.31104C18.5002 7.70437 20.4289 6.6665 22.6001 6.6665C26.282 6.6665 29.2667 9.65127 29.2667 13.3332C29.2667 14.1068 29.135 14.8497 28.8926 15.5405C27.973 15.1911 26.9756 14.9998 25.9334 14.9998Z" fill="#700000"/>
<path fill-rule="evenodd" clip-rule="evenodd" d="M22.6001 0.416504C23.2905 0.416504 23.8501 0.976148 23.8501 1.6665V3.33317C23.8501 4.02353 23.2905 4.58317 22.6001 4.58317C21.9097 4.58317 21.3501 4.02353 21.3501 3.33317V1.6665C21.3501 0.976148 21.9097 0.416504 22.6001 0.416504Z" fill="#700000"/>
<path fill-rule="evenodd" clip-rule="evenodd" d="M31.7335 4.1998C32.2216 4.68796 32.2216 5.47941 31.7335 5.96757L30.555 7.14608C30.0668 7.63423 29.2754 7.63423 28.7872 7.14608C28.2991 6.65792 28.2991 5.86647 28.7872 5.37831L29.9657 4.1998C30.4539 3.71165 31.2453 3.71165 31.7335 4.1998Z" fill="#700000"/>
<path fill-rule="evenodd" clip-rule="evenodd" d="M35.5166 13.333C35.5166 14.0234 34.957 14.583 34.2666 14.583L32.5999 14.583C31.9096 14.583 31.3499 14.0234 31.3499 13.333C31.3499 12.6427 31.9096 12.083 32.5999 12.083L34.2666 12.083C34.957 12.083 35.5166 12.6427 35.5166 13.333Z" fill="#700000"/>
<path opacity="0.4" d="M0.93335 19.9997C0.93335 26.443 6.15669 31.6663 12.6 31.6663H25.9333C30.5357 31.6663 34.2667 27.9354 34.2667 23.333C34.2667 19.7728 32.0341 16.734 28.8926 15.5404C27.973 15.191 26.9755 14.9997 25.9333 14.9997C25.0246 14.9997 24.1498 15.1451 23.331 15.4141C22.1656 12.6905 19.9937 10.5002 17.2829 9.31087C15.8495 8.68201 14.2655 8.33301 12.6 8.33301C6.15669 8.33301 0.93335 13.5564 0.93335 19.9997Z" fill="#700000"/>
<path d="M26.7666 32.4997C26.7666 34.3406 25.6473 34.9997 24.2666 34.9997C22.8859 34.9997 21.7666 34.3406 21.7666 32.4997C21.7666 30.6587 24.2666 28.333 24.2666 28.333C24.2666 28.333 26.7666 30.6587 26.7666 32.4997Z" fill="#700000"/>
<path d="M4.2666 31.6665L12.5999 21.6665V28.3332H17.5999L9.2666 38.3332V31.6665H4.2666Z" fill="#700000"/>
</svg>
