<svg width="33" height="24" viewBox="0 0 33 24" fill="none" xmlns="http://www.w3.org/2000/svg">
<path fill-rule="evenodd" clip-rule="evenodd" d="M8.83228 12.1565V21.3768C8.83228 22.4814 9.72771 23.3768 10.8323 23.3768H22.3682C23.4727 23.3768 24.3682 22.4814 24.3682 21.3768V12.1565L18.9663 14.5573C17.4599 15.2268 15.7404 15.2268 14.234 14.5573L8.83228 12.1565ZM29.2231 9.9987V18.5217C29.2231 19.3261 29.8752 19.9782 30.6796 19.9782C31.484 19.9782 32.1361 19.3261 32.1361 18.5217V8.70215C32.1184 8.71127 32.1002 8.71998 32.0816 8.72825L29.2231 9.9987Z" fill="#700000"/>
<path opacity="0.4" d="M1.11863 6.95371L14.2339 1.12469C15.7403 0.455182 17.4598 0.455182 18.9662 1.12469L32.0815 6.95371C32.8504 7.29542 32.8504 8.38661 32.0815 8.72832L18.9662 14.5573C17.4598 15.2268 15.7403 15.2268 14.2339 14.5573L1.11863 8.72832C0.34978 8.38661 0.34978 7.29542 1.11863 6.95371Z" fill="#700000"/>
</svg>
