<svg width="36" height="36" viewBox="0 0 36 36" fill="none" xmlns="http://www.w3.org/2000/svg">
<path opacity="0.4" fill-rule="evenodd" clip-rule="evenodd" d="M27.3499 15.917C25.509 15.917 24.0166 17.4094 24.0166 19.2503V28.417C24.0166 32.5591 20.6587 35.917 16.5166 35.917C12.3745 35.917 9.0166 32.5591 9.0166 28.417V19.667C9.0166 18.9766 9.57625 18.417 10.2666 18.417C10.957 18.417 11.5166 18.9766 11.5166 19.667V28.417C11.5166 31.1784 13.7552 33.417 16.5166 33.417C19.278 33.417 21.5166 31.1784 21.5166 28.417V19.2503C21.5166 16.0287 24.1283 13.417 27.3499 13.417C30.5716 13.417 33.1833 16.0287 33.1833 19.2503V21.3337C33.1833 22.024 32.6236 22.5837 31.9333 22.5837C31.2429 22.5837 30.6833 22.024 30.6833 21.3337V19.2503C30.6833 17.4094 29.1909 15.917 27.3499 15.917Z" fill="#700000"/>
<path d="M35.2668 24.6668C35.2668 26.5078 33.7744 28.0002 31.9334 28.0002C30.0925 28.0002 28.6001 26.5078 28.6001 24.6668C28.6001 22.8259 30.0925 21.3335 31.9334 21.3335C33.7744 21.3335 35.2668 22.8259 35.2668 24.6668Z" fill="#700000"/>
<path fill-rule="evenodd" clip-rule="evenodd" d="M4.01668 1.92285C2.09293 2.46696 0.68335 4.2357 0.68335 6.33366V11.3337C0.68335 16.6264 4.97395 20.917 10.2667 20.917C15.5594 20.917 19.85 16.6264 19.85 11.3337V6.33366C19.85 4.2357 18.4404 2.46696 16.5167 1.92285V4.66684C17.0227 5.04693 17.35 5.65207 17.35 6.33366V11.3337C17.35 15.2457 14.1787 18.417 10.2667 18.417C6.35467 18.417 3.18335 15.2457 3.18335 11.3337V6.33366C3.18335 5.65207 3.51066 5.04692 4.01668 4.66684V1.92285Z" fill="#700000"/>
<path opacity="0.4" fill-rule="evenodd" clip-rule="evenodd" d="M15.2666 0.0834961C15.957 0.0834961 16.5166 0.64314 16.5166 1.3335V4.66683C16.5166 5.35719 15.957 5.91683 15.2666 5.91683C14.5762 5.91683 14.0166 5.35719 14.0166 4.66683V1.3335C14.0166 0.64314 14.5762 0.0834961 15.2666 0.0834961Z" fill="#700000"/>
<path opacity="0.4" fill-rule="evenodd" clip-rule="evenodd" d="M5.2666 0.0834961C5.95696 0.0834961 6.5166 0.64314 6.5166 1.3335V4.66683C6.5166 5.35719 5.95696 5.91683 5.2666 5.91683C4.57625 5.91683 4.0166 5.35719 4.0166 4.66683V1.3335C4.0166 0.64314 4.57625 0.0834961 5.2666 0.0834961Z" fill="#700000"/>
</svg>
