<svg width="41" height="40" viewBox="0 0 41 40" fill="none" xmlns="http://www.w3.org/2000/svg">
<path d="M37.2668 37.9165H3.93347C3.25014 37.9165 2.68347 37.3498 2.68347 36.6665C2.68347 35.9832 3.25014 35.4165 3.93347 35.4165H37.2668C37.9501 35.4165 38.5168 35.9832 38.5168 36.6665C38.5168 37.3498 37.9501 37.9165 37.2668 37.9165Z" fill="#700000"/>
<path opacity="0.4" d="M35.6001 16.6331V36.6665H5.51672L5.60006 16.6165C5.60006 15.5998 6.06672 14.6332 6.88339 13.9999L18.5501 4.9332C19.7501 3.9832 21.4501 3.9832 22.6501 4.9332L24.8834 6.6665L32.2667 12.3998L34.3167 13.9999C35.1334 14.6332 35.6001 15.5998 35.6001 16.6331Z" fill="#700000"/>
<path d="M22.2668 28.3335H18.9335C17.5501 28.3335 16.4335 29.4502 16.4335 30.8335V36.6668H24.7668V30.8335C24.7668 29.4502 23.6501 28.3335 22.2668 28.3335Z" fill="#700000"/>
<path d="M16.4335 22.9168H13.1001C12.1835 22.9168 11.4335 22.1668 11.4335 21.2502V18.7502C11.4335 17.8335 12.1835 17.0835 13.1001 17.0835H16.4335C17.3501 17.0835 18.1001 17.8335 18.1001 18.7502V21.2502C18.1001 22.1668 17.3501 22.9168 16.4335 22.9168Z" fill="#700000"/>
<path d="M28.1001 22.9168H24.7668C23.8501 22.9168 23.1001 22.1668 23.1001 21.2502V18.7502C23.1001 17.8335 23.8501 17.0835 24.7668 17.0835H28.1001C29.0168 17.0835 29.7668 17.8335 29.7668 18.7502V21.2502C29.7668 22.1668 29.0168 22.9168 28.1001 22.9168Z" fill="#700000"/>
<path d="M32.2668 12.3998L24.8834 6.6665H30.5668C31.4834 6.6665 32.2334 7.39982 32.2334 8.31649L32.2668 12.3998Z" fill="#700000"/>
</svg>
