<svg width="35" height="28" viewBox="0 0 35 28" fill="none" xmlns="http://www.w3.org/2000/svg">
<path opacity="0.4" fill-rule="evenodd" clip-rule="evenodd" d="M29.7777 5.73351C30.3521 6.11645 30.5073 6.89253 30.1244 7.46695L20.4894 21.9194C20.1065 22.4938 19.3304 22.649 18.756 22.266C18.1816 21.8831 18.0264 21.107 18.4093 20.5326L28.0443 6.0802C28.4272 5.50578 29.2033 5.35057 29.7777 5.73351ZM5.93367 15.2499C6.34788 14.6976 7.13138 14.5857 7.68367 14.9999L15.6834 20.9997C16.2356 21.4139 16.3476 22.1974 15.9334 22.7497C15.5191 23.3019 14.7356 23.4139 14.1834 22.9997L6.18367 16.9999C5.63138 16.5857 5.51945 15.8022 5.93367 15.2499Z" fill="#700000"/>
<path d="M7.60014 13.9998C7.60014 14.7503 7.35214 15.4428 6.93363 16C6.32549 16.8095 5.3573 17.3332 4.26681 17.3332C2.42586 17.3332 0.933472 15.8408 0.933472 13.9998C0.933472 12.1589 2.42586 10.6665 4.26681 10.6665C6.10775 10.6665 7.60014 12.1589 7.60014 13.9998Z" fill="#700000"/>
<path d="M20.9335 23.9998C20.9335 25.8408 19.4411 27.3332 17.6001 27.3332C15.7592 27.3332 14.2668 25.8408 14.2668 23.9998C14.2668 23.2494 14.5148 22.5568 14.9333 21.9997C15.5415 21.1902 16.5096 20.6665 17.6001 20.6665C18.2842 20.6665 18.9202 20.8726 19.4493 21.226C20.3441 21.8238 20.9335 22.843 20.9335 23.9998Z" fill="#700000"/>
<path d="M34.2668 3.99984C34.2668 5.84079 32.7744 7.33317 30.9335 7.33317C30.2494 7.33317 29.6134 7.12709 29.0843 6.77363C28.1895 6.1759 27.6001 5.15669 27.6001 3.99984C27.6001 2.15889 29.0925 0.666504 30.9335 0.666504C32.7744 0.666504 34.2668 2.15889 34.2668 3.99984Z" fill="#700000"/>
</svg>
