<svg width="33" height="32" viewBox="0 0 33 32" fill="none" xmlns="http://www.w3.org/2000/svg">
<path fill-rule="evenodd" clip-rule="evenodd" d="M29.9987 7.99992C29.9987 9.47268 28.8048 10.6666 27.332 10.6666C26.8278 10.6666 26.3563 10.5266 25.9541 10.2835L19.2436 15.3163C19.3013 15.5345 19.332 15.7636 19.332 15.9999C19.332 17.4727 18.1381 18.6666 16.6654 18.6666C16.1611 18.6666 15.6896 18.5266 15.2874 18.2835L8.57694 23.3163C8.63463 23.5345 8.66536 23.7636 8.66536 23.9999C8.66536 25.4727 7.47146 26.6666 5.9987 26.6666C4.52594 26.6666 3.33203 25.4727 3.33203 23.9999C3.33203 22.5272 4.52594 21.3333 5.9987 21.3333C6.503 21.3333 6.9746 21.4732 7.37677 21.7165L14.0872 16.6837C14.0294 16.4655 13.9987 16.2363 13.9987 15.9999C13.9987 14.5272 15.1926 13.3333 16.6654 13.3333C17.1697 13.3333 17.6413 13.4732 18.0434 13.7165L24.7538 8.68367C24.6961 8.46546 24.6654 8.23628 24.6654 7.99992C24.6654 6.52716 25.8593 5.33325 27.332 5.33325C28.8048 5.33325 29.9987 6.52716 29.9987 7.99992Z" fill="white"/>
</svg>
