<svg width="84" height="350" viewBox="0 0 84 350" fill="none" xmlns="http://www.w3.org/2000/svg">
<path d="M0 349.916H41.9V309.901H0L0 349.916ZM0 269.886H41.9V229.871H0L0 269.886ZM0 189.952H41.9L41.9 149.937H0L0 189.952ZM0 110.017H41.9L41.9 70.0024H0L0 110.017ZM0 29.9874H41.9V-9.93207H0L0 29.9874ZM0 -50.0426H41.9V-90.0576H0L0 -50.0426ZM0 -129.977H41.9L41.9 -169.992H0L0 -129.977ZM0 -210.007H41.9V-249.927H0L0 -210.007ZM0 -290.037H41.9V-330.052H0L0 -290.037ZM0 -369.972H41.9L41.9 -409.987H0L0 -369.972ZM0 -450.002H41.9L41.9 -489.921H0L0 -450.002ZM83.7999 309.806V269.886H41.9L41.9 309.806H83.7999ZM83.7999 229.871V189.856H41.9V229.871H83.7999ZM83.7999 149.841V109.826H41.9V149.841H83.7999ZM83.7999 69.9069V29.8919H42V69.9069H83.7999ZM83.7999 -10.1231V-50.1381H41.9L41.9 -10.1231H83.7999ZM83.7999 -90.0576V-130.073H41.9V-90.0576H83.7999ZM83.7999 -170.088L83.7999 -210.103H41.9V-170.088H83.7999ZM83.7999 -250.022V-290.037H42L42 -250.022H83.7999ZM83.7999 -330.052V-370.067H41.9V-330.052H83.7999ZM83.7999 -410.082L83.7999 -450.002H41.9V-410.082H83.7999ZM41.9 -490.017H83.7999V-530.032H41.9V-490.017Z" fill="#D9D9D9"/>
</svg>
