<svg width="84" height="351" viewBox="0 0 84 351" fill="none" xmlns="http://www.w3.org/2000/svg">
<path d="M0 880.458H41.9V840.444H0L0 880.458ZM0 800.429H41.9V760.413H0L0 800.429ZM0 720.494H41.9L41.9 680.479H0L0 720.494ZM0 640.56H41.9L41.9 600.545H0L0 640.56ZM0 560.53H41.9V520.61H0L0 560.53ZM0 480.5H41.9V440.485H0L0 480.5ZM0 400.565H41.9L41.9 360.55H0L0 400.565ZM0 320.535H41.9V280.616H0L0 320.535ZM0 240.505H41.9V200.49H0L0 240.505ZM0 160.571H41.9L41.9 120.556H0L0 160.571ZM0 80.5406H41.9L41.9 40.621H0L0 80.5406ZM83.7999 840.348V800.429H41.9L41.9 840.348H83.7999ZM83.7999 760.413V720.398H41.9V760.413H83.7999ZM83.7999 680.384V640.369H41.9V680.384H83.7999ZM83.7999 600.449V560.434H42V600.449H83.7999ZM83.7999 520.419V480.404H41.9L41.9 520.419H83.7999ZM83.7999 440.485V400.47H41.9V440.485H83.7999ZM83.7999 360.455L83.7999 320.44H41.9V360.455H83.7999ZM83.7999 280.52V240.505H42L42 280.52H83.7999ZM83.7999 200.49V160.475H41.9V200.49H83.7999ZM83.7999 120.46L83.7999 80.5406H41.9V120.46H83.7999ZM41.9 40.5256H83.7999V0.510559H41.9V40.5256Z" fill="#D9D9D9"/>
</svg>
