<svg width="37" height="27" viewBox="0 0 37 27" fill="none" xmlns="http://www.w3.org/2000/svg">
<path opacity="0.4" fill-rule="evenodd" clip-rule="evenodd" d="M36.3388 26.3099C35.9836 26.9019 35.2158 27.0939 34.6238 26.7387L30.2653 24.1236C28.3239 22.9587 25.8627 23.1243 24.0947 24.5387L23.5457 24.9778C20.6544 27.2909 16.546 27.2909 13.6547 24.9778L13.1057 24.5387C11.3378 23.1243 8.87659 22.9587 6.93513 24.1236L2.57669 26.7387C1.98471 27.0939 1.21689 26.9019 0.861702 26.3099C0.506516 25.7179 0.698475 24.9501 1.29045 24.5949L5.64889 21.9799C8.48642 20.2774 12.0835 20.5193 14.6675 22.5865L15.2165 23.0257C17.1947 24.6083 20.0057 24.6083 21.984 23.0257L22.533 22.5865C25.117 20.5193 28.7141 20.2774 31.5516 21.9799L35.91 24.5949C36.502 24.9501 36.694 25.7179 36.3388 26.3099Z" fill="#700000"/>
<path fill-rule="evenodd" clip-rule="evenodd" d="M36.3388 16.3099C35.9836 16.9019 35.2158 17.0939 34.6238 16.7387L30.2653 14.1236C28.3239 12.9587 25.8627 13.1243 24.0947 14.5387L23.5457 14.9778C20.6544 17.2909 16.546 17.2909 13.6547 14.9778L13.1057 14.5387C11.3378 13.1243 8.87659 12.9587 6.93513 14.1236L2.57669 16.7387C1.98471 17.0939 1.21689 16.9019 0.861702 16.3099C0.506516 15.7179 0.698475 14.9501 1.29045 14.5949L5.64889 11.9799C8.48642 10.2774 12.0835 10.5193 14.6675 12.5865L15.2165 13.0257C17.1947 14.6083 20.0057 14.6083 21.984 13.0257L22.533 12.5865C25.117 10.5193 28.7141 10.2774 31.5516 11.9799L35.91 14.5949C36.502 14.9501 36.694 15.7179 36.3388 16.3099Z" fill="#700000"/>
<path opacity="0.4" fill-rule="evenodd" clip-rule="evenodd" d="M36.3388 6.30992C35.9836 6.9019 35.2158 7.09385 34.6238 6.73867L30.2653 4.12361C28.3239 2.95873 25.8627 3.12427 24.0947 4.53866L23.5457 4.97785C20.6544 7.2909 16.546 7.2909 13.6547 4.97785L13.1057 4.53866C11.3378 3.12427 8.87659 2.95873 6.93513 4.12361L2.57669 6.73867C1.98471 7.09385 1.21689 6.9019 0.861702 6.30992C0.506516 5.71795 0.698475 4.95012 1.29045 4.59494L5.64889 1.97988C8.48642 0.277356 12.0835 0.519305 14.6675 2.58648L15.2165 3.02568C17.1947 4.60829 20.0057 4.60829 21.984 3.02568L22.533 2.58648C25.117 0.519303 28.7141 0.277358 31.5516 1.97988L35.91 4.59494C36.502 4.95012 36.694 5.71795 36.3388 6.30992Z" fill="#700000"/>
</svg>
