<svg width="41" height="40" viewBox="0 0 41 40" fill="none" xmlns="http://www.w3.org/2000/svg">
<path d="M18.2659 6.91675V10H15.7993C13.1159 10 11.766 11.35 11.766 14.0333V30H7.51599C5.13266 30 3.93262 28.8 3.93262 26.4167V6.91675C3.93262 4.53341 5.13266 3.33337 7.51599 3.33337H14.6826C17.066 3.33337 18.2659 4.53341 18.2659 6.91675Z" fill="#3F6711"/>
<path opacity="0.4" d="M29.5499 14.0333V32.6334C29.5499 35.3167 28.2166 36.6667 25.5333 36.6667H15.7999C13.1166 36.6667 11.7666 35.3167 11.7666 32.6334V14.0333C11.7666 11.35 13.1166 10 15.7999 10H25.5333C28.2166 10 29.5499 11.35 29.5499 14.0333Z" fill="#3F6711"/>
<path d="M37.2659 6.91675V26.4167C37.2659 28.8 36.0659 30 33.6825 30H29.5492V14.0333C29.5492 11.35 28.2159 10 25.5326 10H22.9326V6.91675C22.9326 4.53341 24.1326 3.33337 26.5159 3.33337H33.6825C36.0659 3.33337 37.2659 4.53341 37.2659 6.91675Z" fill="#3F6711"/>
<path d="M23.9333 19.5834H17.2666C16.5833 19.5834 16.0166 19.0167 16.0166 18.3334C16.0166 17.65 16.5833 17.0834 17.2666 17.0834H23.9333C24.6166 17.0834 25.1833 17.65 25.1833 18.3334C25.1833 19.0167 24.6166 19.5834 23.9333 19.5834Z" fill="#3F6711"/>
<path d="M23.9333 24.5834H17.2666C16.5833 24.5834 16.0166 24.0167 16.0166 23.3334C16.0166 22.65 16.5833 22.0834 17.2666 22.0834H23.9333C24.6166 22.0834 25.1833 22.65 25.1833 23.3334C25.1833 24.0167 24.6166 24.5834 23.9333 24.5834Z" fill="#3F6711"/>
<path d="M21.8496 31.6666V36.6666H19.3496V31.6666C19.3496 30.9833 19.9163 30.4166 20.5996 30.4166C21.2829 30.4166 21.8496 30.9833 21.8496 31.6666Z" fill="#3F6711"/>
</svg>
