<svg width="41" height="40" viewBox="0 0 41 40" fill="none" xmlns="http://www.w3.org/2000/svg">
<g opacity="0.4">
<path fill-rule="evenodd" clip-rule="evenodd" d="M20.5996 4.58325C13.0057 4.58325 6.84961 10.7393 6.84961 18.3333V22.9166H4.34961V18.3333C4.34961 9.35862 11.625 2.08325 20.5996 2.08325C29.5742 2.08325 36.8496 9.35862 36.8496 18.3333V22.9166H34.3496V18.3333C34.3496 10.7393 28.1935 4.58325 20.5996 4.58325Z" fill="#3F6711"/>
<path fill-rule="evenodd" clip-rule="evenodd" d="M35.5996 22.0833C36.29 22.0833 36.8496 22.6429 36.8496 23.3333V26.6666C36.8496 32.8798 31.8128 37.9166 25.5996 37.9166H20.5996C19.9093 37.9166 19.3496 37.3569 19.3496 36.6666C19.3496 35.9762 19.9093 35.4166 20.5996 35.4166H25.5996C30.4321 35.4166 34.3496 31.4991 34.3496 26.6666V23.3333C34.3496 22.6429 34.9093 22.0833 35.5996 22.0833Z" fill="#3F6711"/>
</g>
<path fill-rule="evenodd" clip-rule="evenodd" d="M24.3496 21.6665C24.3496 18.2147 27.1478 15.4165 30.5996 15.4165C34.0514 15.4165 36.8496 18.2147 36.8496 21.6665V24.9998C36.8496 28.4516 34.0514 31.2498 30.5996 31.2498C27.1478 31.2498 24.3496 28.4516 24.3496 24.9998V21.6665Z" fill="#3F6711"/>
<path fill-rule="evenodd" clip-rule="evenodd" d="M4.34961 21.6665C4.34961 18.2147 7.14783 15.4165 10.5996 15.4165C14.0514 15.4165 16.8496 18.2147 16.8496 21.6665V24.9998C16.8496 28.4516 14.0514 31.2498 10.5996 31.2498C7.14783 31.2498 4.34961 28.4516 4.34961 24.9998V21.6665Z" fill="#3F6711"/>
</svg>
