<svg width="41" height="40" viewBox="0 0 41 40" fill="none" xmlns="http://www.w3.org/2000/svg">
<path opacity="0.4" d="M24.0767 11.6667L17.1238 11.6667L14.7886 8.9883C12.4996 6.36275 15.17 2.43833 18.512 3.51645L20.0583 4.01528C20.4104 4.12885 20.7901 4.12885 21.1422 4.01528L22.6885 3.51645C26.0305 2.43834 28.7009 6.36275 26.4119 8.9883L24.0767 11.6667Z" fill="#3F6711"/>
<path opacity="0.4" d="M10.0738 17.0172C11.3784 12.8425 15.2448 10 19.6186 10H21.5815C25.9553 10 29.8217 12.8425 31.1263 17.0173L33.2096 23.6839C35.2219 30.1232 30.4112 36.6667 23.6648 36.6667H17.5353C10.7889 36.6667 5.97821 30.1232 7.99049 23.6839L10.0738 17.0172Z" fill="#3F6711"/>
<path d="M20.5996 33.3334C20.5996 31.4924 22.092 30 23.9329 30H33.9329C35.7739 30 37.2663 31.4924 37.2663 33.3334C37.2663 35.1743 35.7739 36.6667 33.9329 36.6667H23.9329C22.092 36.6667 20.5996 35.1743 20.5996 33.3334Z" fill="#3F6711"/>
<path d="M20.5996 26.6667C20.5996 24.8258 22.092 23.3334 23.9329 23.3334H32.8218H33.9329C35.7739 23.3334 37.2663 24.8258 37.2663 26.6667C37.2663 28.5077 35.7739 30 33.9329 30H23.9329C22.092 30 20.5996 28.5077 20.5996 26.6667Z" fill="#3F6711"/>
</svg>
