<svg width="41" height="40" viewBox="0 0 41 40" fill="none" xmlns="http://www.w3.org/2000/svg">
<path opacity="0.4" d="M24.0767 11.6666L17.1238 11.6666L14.7886 8.98818C12.4996 6.36263 15.17 2.43821 18.512 3.51633L20.0583 4.01515C20.4104 4.12872 20.7901 4.12872 21.1422 4.01515L22.6885 3.51633C26.0305 2.43821 28.7009 6.36263 26.4119 8.98818L24.0767 11.6666Z" fill="#3F6711"/>
<path opacity="0.4" d="M10.0738 17.0172C11.3784 12.8425 15.2448 10 19.6186 10H21.5815C25.9553 10 29.8217 12.8425 31.1263 17.0173L33.2096 23.6839C35.2219 30.1232 30.4112 36.6667 23.6648 36.6667H17.5353C10.7889 36.6667 5.97821 30.1232 7.99049 23.6839L10.0738 17.0172Z" fill="#3F6711"/>
<path d="M24.7669 24.1666C24.7669 21.8654 22.9014 19.9999 20.6003 19.9999C18.2991 19.9999 16.4336 21.8654 16.4336 24.1666C16.4336 26.4678 18.2991 28.3333 20.6003 28.3333C22.9014 28.3333 24.7669 26.4678 24.7669 24.1666Z" fill="#3F6711"/>
</svg>
