<svg width="41" height="40" viewBox="0 0 41 40" fill="none" xmlns="http://www.w3.org/2000/svg">
<path opacity="0.4" d="M3.93262 9.99992C3.93262 6.31802 6.91739 3.33325 10.5993 3.33325H30.5993C34.2812 3.33325 37.2659 6.31802 37.2659 9.99992V29.9999C37.2659 33.6818 34.2812 36.6666 30.5993 36.6666H10.5993C6.91739 36.6666 3.93262 33.6818 3.93262 29.9999V9.99992Z" fill="#3F6711"/>
<path fill-rule="evenodd" clip-rule="evenodd" d="M13.9329 10H27.2663C29.1072 10 30.5996 11.4924 30.5996 13.3333V26.6667C30.5996 28.5076 29.1072 30 27.2663 30H13.9329C12.092 30 10.5996 28.5076 10.5996 26.6667V13.3333C10.5996 11.4924 12.092 10 13.9329 10ZM20.5996 16.6667C21.9985 16.6667 23.1962 17.5284 23.6906 18.75H27.2663C27.9566 18.75 28.5163 19.3096 28.5163 20C28.5163 20.6904 27.9566 21.25 27.2663 21.25H23.6906C23.1962 22.4716 21.9985 23.3333 20.5996 23.3333C18.7587 23.3333 17.2663 21.8409 17.2663 20C17.2663 18.1591 18.7587 16.6667 20.5996 16.6667Z" fill="#3F6711"/>
</svg>
