<svg width="18" height="18" viewBox="0 0 18 18" fill="none" xmlns="http://www.w3.org/2000/svg">
<path fill-rule="evenodd" clip-rule="evenodd" d="M1.91602 0.166672C1.22566 0.166672 0.666016 0.726316 0.666016 1.41667C0.666016 2.10703 1.22566 2.66667 1.91602 2.66667H16.0827C16.773 2.66667 17.3327 2.10703 17.3327 1.41667C17.3327 0.726316 16.773 0.166672 16.0827 0.166672H1.91602ZM16.4993 3.91667H1.49935V11.8333C1.49935 12.7538 2.24554 13.5 3.16602 13.5H8.37435V16.8333C8.37435 17.1785 8.65417 17.4583 8.99935 17.4583C9.34453 17.4583 9.62435 17.1785 9.62435 16.8333V13.5H14.8327C15.7532 13.5 16.4993 12.7538 16.4993 11.8333V3.91667ZM12.8686 7.15499C13.0462 6.859 12.9502 6.47509 12.6542 6.2975C12.3582 6.11991 11.9743 6.21589 11.7967 6.51187L10.8949 8.015C10.5869 8.52835 9.86137 8.57715 9.48739 8.10967C8.56923 6.96197 6.78814 7.08177 6.03195 8.34208L5.13008 9.84521C4.95248 10.1412 5.04846 10.5251 5.34445 10.7027C5.64044 10.8803 6.02435 10.7843 6.20194 10.4883L7.10382 8.9852C7.41183 8.47185 8.13731 8.42305 8.5113 8.89053C9.42945 10.0382 11.2105 9.91843 11.9667 8.65812L12.8686 7.15499Z" fill="#999999"/>
</svg>
