<svg width="18" height="17" viewBox="0 0 18 17" fill="none" xmlns="http://www.w3.org/2000/svg">
<path fill-rule="evenodd" clip-rule="evenodd" d="M10.9495 4.85145C10.5347 4.62969 10.0864 4.48105 9.62435 4.41044V0.190066C10.778 0.27683 11.9034 0.603078 12.9277 1.15059C14.1363 1.7966 15.1669 2.73071 15.9283 3.87018C16.6896 5.00964 17.1583 6.31929 17.2926 7.68312C17.2989 7.74704 17.3044 7.81098 17.3092 7.87493H13.0889C12.9975 7.2772 12.7761 6.70581 12.4391 6.20155C12.0612 5.63588 11.5495 5.17215 10.9495 4.85145ZM4.3696 1.57102C5.56618 0.771491 6.9463 0.297459 8.37435 0.190063V4.41044C7.77822 4.50155 7.20659 4.72232 6.70097 5.06016C6.02065 5.51474 5.4904 6.16085 5.17729 6.91678C4.86417 7.67271 4.78224 8.50452 4.94187 9.30701C5.0605 9.90344 5.30861 10.4638 5.66573 10.9497L2.68147 13.934C1.74761 12.8482 1.1069 11.5372 0.826142 10.1257C0.504599 8.50918 0.669626 6.83362 1.30036 5.3109C1.93109 3.78818 2.99919 2.4867 4.3696 1.57102ZM3.56536 14.8178C4.44246 15.5722 5.46889 16.1373 6.58033 16.4744C7.89175 16.8722 9.28103 16.9405 10.6251 16.6731C11.9567 16.4083 13.2032 15.8221 14.2564 14.9659L10.5005 12.355C10.2763 12.4423 10.0441 12.5101 9.80645 12.5574C9.1392 12.6901 8.44951 12.6563 7.79847 12.4588C7.34832 12.3222 6.92625 12.1104 6.54962 11.8336L3.56536 14.8178ZM12.8214 10.0831C12.9493 9.77445 13.0388 9.45268 13.0889 9.12493H17.3092C17.2431 10.0036 17.0379 10.8693 16.6984 11.689C16.3326 12.572 15.8189 13.3825 15.1822 14.0871L11.6789 11.6518C12.1785 11.2271 12.5702 10.6895 12.8214 10.0831Z" fill="#999999"/>
</svg>
