<svg width="20" height="21" viewBox="0 0 20 21" fill="none" xmlns="http://www.w3.org/2000/svg">
<path fill-rule="evenodd" clip-rule="evenodd" d="M8.77593 4.5551L9.37565 3.95538L9.37565 6.95834C9.37565 7.30352 9.65547 7.58334 10.0007 7.58334C10.3458 7.58334 10.6257 7.30352 10.6257 6.95834L10.6257 3.95538L11.2254 4.5551C11.4695 4.79918 11.8652 4.79918 12.1093 4.5551C12.3533 4.31102 12.3533 3.9153 12.1093 3.67122L11.0318 2.59381C10.4623 2.02429 9.53897 2.02429 8.96945 2.59381L7.89204 3.67122C7.64797 3.9153 7.64797 4.31102 7.89204 4.5551C8.13612 4.79918 8.53185 4.79918 8.77593 4.5551ZM5.00065 9.45834C4.08018 9.45834 3.33398 10.2045 3.33398 11.125C3.33398 12.0455 4.08018 12.7917 5.00065 12.7917C4.08018 12.7917 3.33398 13.5379 3.33398 14.4583C3.33398 15.3788 4.08018 16.125 5.00065 16.125H8.75065C8.75065 13.821 10.4495 11.916 12.6632 11.5906C12.8828 11.5583 13.1068 11.5417 13.334 11.5417C13.594 11.5417 13.849 11.5633 14.0972 11.6049C14.1428 11.4529 14.1673 11.2918 14.1673 11.125C14.1673 10.2045 13.4211 9.45834 12.5007 9.45834H5.00065ZM16.6673 16.125C16.6673 14.2841 15.1749 12.7917 13.334 12.7917C13.1679 12.7917 13.0046 12.8038 12.845 12.8273C11.2359 13.0638 10.0007 14.4502 10.0007 16.125C10.0007 17.966 11.493 19.4583 13.334 19.4583C15.1749 19.4583 16.6673 17.966 16.6673 16.125Z" fill="#999999"/>
</svg>
