<svg width="41" height="40" viewBox="0 0 41 40" fill="none" xmlns="http://www.w3.org/2000/svg">
<path fill-rule="evenodd" clip-rule="evenodd" d="M17.7498 3.33334C17.7498 2.64299 18.3094 2.08334 18.9998 2.08334H22.3331C23.0234 2.08334 23.5831 2.64299 23.5831 3.33334C23.5831 4.0237 23.0234 4.58334 22.3331 4.58334H21.9164V11.25H22.3331C23.0234 11.25 23.5831 11.8097 23.5831 12.5C23.5831 13.1904 23.0234 13.75 22.3331 13.75H21.9164V18.75H26.9164V18.3333C26.9164 17.643 27.4761 17.0833 28.1664 17.0833C28.8568 17.0833 29.4164 17.643 29.4164 18.3333V18.75H36.0831V18.3333C36.0831 17.643 36.6427 17.0833 37.3331 17.0833C38.0234 17.0833 38.5831 17.643 38.5831 18.3333V21.6667C38.5831 22.357 38.0234 22.9167 37.3331 22.9167C36.6427 22.9167 36.0831 22.357 36.0831 21.6667V21.25H29.4164V21.6667C29.4164 22.357 28.8568 22.9167 28.1664 22.9167C27.4761 22.9167 26.9164 22.357 26.9164 21.6667V21.25H21.9164V26.25H22.3331C23.0234 26.25 23.5831 26.8097 23.5831 27.5C23.5831 28.1904 23.0234 28.75 22.3331 28.75H21.9164V35.4167H22.3331C23.0234 35.4167 23.5831 35.9763 23.5831 36.6667C23.5831 37.357 23.0234 37.9167 22.3331 37.9167H18.9998C18.3094 37.9167 17.7498 37.357 17.7498 36.6667C17.7498 35.9763 18.3094 35.4167 18.9998 35.4167H19.4164V28.75H18.9998C18.3094 28.75 17.7498 28.1904 17.7498 27.5C17.7498 26.8097 18.3094 26.25 18.9998 26.25H19.4164V21.25H14.4164V21.6667C14.4164 22.357 13.8568 22.9167 13.1664 22.9167C12.4761 22.9167 11.9164 22.357 11.9164 21.6667V21.25H5.24976V21.6667C5.24976 22.357 4.69011 22.9167 3.99976 22.9167C3.3094 22.9167 2.74976 22.357 2.74976 21.6667V18.3333C2.74976 17.643 3.3094 17.0833 3.99976 17.0833C4.69011 17.0833 5.24976 17.643 5.24976 18.3333V18.75H11.9164V18.3333C11.9164 17.643 12.4761 17.0833 13.1664 17.0833C13.8568 17.0833 14.4164 17.643 14.4164 18.3333V18.75H19.4164V13.75H18.9998C18.3094 13.75 17.7498 13.1904 17.7498 12.5C17.7498 11.8097 18.3094 11.25 18.9998 11.25H19.4164V4.58334H18.9998C18.3094 4.58334 17.7498 4.0237 17.7498 3.33334ZM9.78254 2.44946C10.2707 1.9613 11.0622 1.9613 11.5503 2.44946L12.3331 3.23224L13.1159 2.44946C13.604 1.9613 14.3955 1.9613 14.8836 2.44946C15.3718 2.93762 15.3718 3.72907 14.8836 4.21723L13.5831 5.51778V6.66668C13.5831 7.35703 13.0234 7.91668 12.3331 7.91668C11.6427 7.91668 11.0831 7.35703 11.0831 6.66668V5.51778L9.78254 4.21723C9.29438 3.72907 9.29438 2.93762 9.78254 2.44946ZM34.8836 25.7828C34.3955 25.2946 33.604 25.2946 33.1159 25.7828C32.6277 26.2709 32.6277 27.0624 33.1159 27.5506L33.8987 28.3333L33.1159 29.1161C32.6277 29.6043 32.6277 30.3957 33.1159 30.8839C33.604 31.372 34.3955 31.372 34.8836 30.8839L35.6664 30.1011L36.4492 30.8839C36.9374 31.372 37.7288 31.372 38.217 30.8839C38.7051 30.3957 38.7051 29.6043 38.217 29.1161L37.4342 28.3333L38.217 27.5506C38.7051 27.0624 38.7051 26.2709 38.217 25.7828C37.7288 25.2946 36.9374 25.2946 36.4492 25.7828L35.6664 26.5656L34.8836 25.7828Z" fill="white"/>
</svg>
