<svg width="23" height="16" viewBox="0 0 23 16" fill="none" xmlns="http://www.w3.org/2000/svg">
<path fill-rule="evenodd" clip-rule="evenodd" d="M4.29314 0.809224C4.95701 0.442991 5.69378 0.25 6.44427 0.25H8.12547C9.31611 0.25 10.4268 0.731713 11.274 1.54628C12.1276 0.72535 13.2413 0.25 14.4225 0.25H16.5557C17.3062 0.25 18.043 0.442991 18.7069 0.809224L20.7567 1.94005C21.6961 2.45829 22.25 3.48835 22.25 4.57043V10.8266C22.25 12.3884 21.0865 13.7832 19.5 13.7832H15.4535C15.1236 14.139 14.6984 14.4115 14.1902 14.5517L10.6603 15.5253C9.2131 15.9245 7.68737 15.7886 6.32157 15.1428L2.39156 13.2844C1.36689 12.7999 0.75 11.7197 0.75 10.5782V4.57043C0.75 3.48834 1.30387 2.45829 2.2433 1.94005L4.29314 0.809224ZM10.3268 2.71956C9.72709 2.09674 8.9403 1.75 8.12547 1.75H6.44427C5.95281 1.75 5.46467 1.87605 5.01769 2.12262L2.96785 3.25345C2.55214 3.48278 2.25 3.98089 2.25 4.57043V10.5782C2.25 11.2021 2.58669 11.7175 3.03277 11.9284L6.96278 13.7867C8.00752 14.2807 9.16442 14.3819 10.2615 14.0793L13.7913 13.1057C14.5432 12.8983 15.0376 11.8708 14.5891 10.9637L12.7865 7.31734L12.1111 8.06251C11.2305 9.03405 9.76946 9.03405 8.8889 8.06251C8.10916 7.2022 8.04726 5.86336 8.72734 4.92543L10.3268 2.71956Z" fill="white"/>
</svg>
