<svg width="40" height="40" viewBox="0 0 40 40" fill="none" xmlns="http://www.w3.org/2000/svg">
<path d="M36.3166 34.6L35.1166 33.4C35.7333 32.4667 36.1 31.3333 36.1 30.1333C36.1 26.8333 33.4333 24.1667 30.1333 24.1667C26.8333 24.1667 24.1666 26.8333 24.1666 30.1333C24.1666 33.4333 26.8333 36.1 30.1333 36.1C31.35 36.1 32.4666 35.7333 33.4 35.1167L34.6 36.3167C34.8333 36.55 35.15 36.6667 35.45 36.6667C35.7666 36.6667 36.0666 36.55 36.3 36.3167C36.7833 35.8333 36.7833 35.0667 36.3166 34.6Z" fill="white"/>
<path d="M3.38331 24.3833C3.38331 24.4333 3.34998 24.5 3.34998 24.55C4.88331 27.6167 7.38331 30.1333 10.45 31.65C10.5 31.65 10.5666 31.6167 10.6166 31.6167C10.05 29.6833 9.61664 27.7 9.29998 25.7167C7.29998 25.3833 5.31664 24.95 3.38331 24.3833Z" fill="white"/>
<path d="M31.7834 10.7167C30.2167 7.43334 27.5667 4.78334 24.3 3.23334C24.9 5.21667 25.4 7.25 25.7334 9.28334C27.7667 9.61667 29.8 10.1 31.7834 10.7167Z" fill="white"/>
<path d="M3.21667 10.7167C5.21667 10.1167 7.25001 9.61667 9.28334 9.28334C9.61668 7.3 10.0333 5.33334 10.6 3.4C10.55 3.4 10.4833 3.36667 10.4333 3.36667C7.30001 4.91667 4.75001 7.53334 3.21667 10.7167Z" fill="white"/>
<path d="M23.0333 8.93332C22.6333 6.76666 22.1333 4.59999 21.4167 2.49999C21.3833 2.38332 21.3833 2.28332 21.3667 2.14999C20.1333 1.84999 18.8333 1.66666 17.5 1.66666C16.15 1.66666 14.8667 1.84999 13.6167 2.16666C13.6 2.28332 13.6167 2.38332 13.5833 2.51666C12.8833 4.61666 12.3667 6.76666 11.9667 8.93332C15.65 8.53332 19.35 8.53332 23.0333 8.93332Z" fill="white"/>
<path d="M8.93329 11.9667C6.74996 12.3667 4.61663 12.8833 2.49996 13.5833C2.38329 13.6167 2.28329 13.6167 2.16663 13.6333C1.84996 14.8667 1.66663 16.1667 1.66663 17.5C1.66663 18.85 1.84996 20.1333 2.16663 21.3833C2.28329 21.4 2.38329 21.3833 2.51663 21.4167C4.61663 22.1167 6.76663 22.6333 8.94996 23.0333C8.53329 19.35 8.53329 15.65 8.93329 11.9667Z" fill="white"/>
<path d="M32.8334 13.6333C32.7167 13.6333 32.6167 13.6167 32.4834 13.5833C30.3834 12.8833 28.2167 12.3667 26.05 11.9667C26.4667 15.65 26.4667 19.35 26.05 23.0167C28.2167 22.6167 30.3834 22.1167 32.4834 21.4C32.6 21.3667 32.7 21.3833 32.8334 21.3667C33.1334 20.1167 33.3334 18.8333 33.3334 17.4833C33.3334 16.1667 33.15 14.8833 32.8334 13.6333Z" fill="white"/>
<path d="M11.9667 26.0667C12.3667 28.25 12.8667 30.4 13.5833 32.5C13.6167 32.6167 13.6 32.7167 13.6167 32.85C14.8667 33.15 16.15 33.3333 17.5 33.3333C18.8333 33.3333 20.1333 33.15 21.3667 32.8333C21.3833 32.7167 21.3833 32.6167 21.4167 32.4833C22.1167 30.3833 22.6333 28.2333 23.0333 26.05C21.2 26.25 19.35 26.4 17.5 26.4C15.65 26.4 13.8 26.2667 11.9667 26.0667Z" fill="white"/>
<path d="M11.5834 11.5833C11.0834 15.5167 11.0834 19.4833 11.5834 23.4333C15.5167 23.9333 19.4834 23.9333 23.4334 23.4333C23.9334 19.5 23.9334 15.5333 23.4334 11.5833C19.4834 11.0833 15.5167 11.0833 11.5834 11.5833Z" fill="white"/>
</svg>
