<svg width="41" height="40" viewBox="0 0 41 40" fill="none" xmlns="http://www.w3.org/2000/svg">
<path d="M36.4501 11.5833C35.3834 7.96668 32.3667 4.95001 28.7501 3.88335C26.0001 3.08335 24.1001 3.15001 22.7834 4.13335C21.2001 5.31668 21.0167 7.45001 21.0167 8.96668V13.1167C21.0167 17.2167 22.8834 19.3 26.5501 19.3H31.3334C32.8334 19.3 34.9834 19.1167 36.1667 17.5333C37.1834 16.2333 37.2667 14.3333 36.4501 11.5833Z" fill="white"/>
<path d="M31.85 22.2667C31.4167 21.7667 30.7833 21.4833 30.1333 21.4833H24.1667C21.2333 21.4833 18.85 19.1 18.85 16.1667V10.2C18.85 9.55001 18.5667 8.91667 18.0667 8.48334C17.5833 8.05001 16.9167 7.85001 16.2833 7.93334C12.3667 8.43334 8.76666 10.5833 6.41666 13.8167C4.04999 17.0667 3.18333 21.0333 3.93333 25C5.01666 30.7333 9.59999 35.3167 15.35 36.4C16.2667 36.5833 17.1833 36.6667 18.1 36.6667C21.1167 36.6667 24.0333 35.7333 26.5167 33.9167C29.75 31.5667 31.9 27.9667 32.4 24.05C32.4833 23.4 32.2833 22.75 31.85 22.2667Z" fill="white"/>
</svg>
