<svg width="20" height="28" viewBox="0 0 20 28" fill="none" xmlns="http://www.w3.org/2000/svg">
<path d="M18.6657 22.4981C19.1127 21.91 19.9997 20.1455 19.9997 20.1455C19.9997 20.1455 19.6703 22.1923 19.2704 23.0862C18.8704 23.9802 18.2352 24.4508 17.6942 25.0624C17.1531 25.6741 16.1414 26.3799 15.3416 26.7798C14.5417 27.1798 12.8949 27.4856 12.6361 27.5091C12.3773 27.5326 11.4127 27.7679 11.0834 27.0386C10.754 26.3093 11.9538 25.8623 12.6361 25.6976C13.3183 25.5329 14.424 25.2742 14.8475 25.133C15.271 24.9918 16.2896 24.5919 16.7131 24.2861C17.1365 23.9802 18.2187 23.0862 18.6657 22.4981Z" fill="#2C2C2C"/>
<path d="M8.70819 5.86524C7.7201 6.57102 7.53189 6.54749 6.63791 7.60615C5.74392 8.66482 5.83803 8.47661 5.34398 9.72349C4.84994 10.9704 5.01462 10.688 4.75584 11.535C4.49705 12.3819 4.49705 12.429 4.40295 13.37C4.30884 14.311 4.47352 15.0608 4.47352 15.1109C4.47352 15.205 4.12064 14.0052 4.12064 13.2289C4.12064 12.4525 4.40295 10.4057 4.5441 9.84112C4.68526 9.2765 4.94701 7.80165 5.62629 6.57102C6.30558 5.34038 7.0849 4.17137 8.12004 3.32444C9.15518 2.47751 11.7401 1.19983 12.4929 0.870459C13.2457 0.541092 15.319 0.0543424 16.2365 0.00728648C17.154 -0.0397694 18.2362 0.148435 18.5891 0.360171C18.942 0.571907 19.4831 0.618963 19.6007 1.72468C19.7183 2.8304 18.0009 3.27739 17.7657 3.32444C17.5304 3.37149 12.9899 3.98316 12.19 4.21843C11.3901 4.45369 9.69628 5.15946 8.70819 5.86524Z" fill="#9C0000"/>
<path d="M7.67242 21.11C8.42525 21.6982 10.3073 22.9451 10.3073 22.9451C10.3073 22.9451 7.67242 21.6041 6.5667 20.8042C5.46098 20.0043 4.16706 18.7339 3.57891 18.1222C2.99076 17.5106 1.69683 15.9814 1.24984 15.1344C0.80285 14.2875 0.520538 13.2288 0.308805 12.3349C0.0970725 11.4409 -0.0205574 10.3352 0.00296855 9.69996C0.0264945 9.06476 0.191176 7.22974 0.308805 6.87685C0.426435 6.52396 0.896953 5.6535 1.62626 5.6535C2.35556 5.6535 2.68492 6.33576 2.68492 6.7357C2.68492 7.13564 2.61435 8.12372 2.54377 9.20592C2.51889 9.58738 2.54377 10.7116 2.54377 11.4409C2.54377 12.1702 2.49672 12.429 2.82608 14.0758C3.15544 15.7226 3.72007 16.5225 4.54347 17.8164C5.36688 19.1103 6.91959 20.5219 7.67242 21.11Z" fill="#999999"/>
<path d="M14.6836 23.5802C15.7422 23.2744 18.1184 21.8864 18.1184 21.8864C18.1184 21.8864 14.9659 24.0978 14.1895 24.3801C13.4132 24.6624 11.437 24.9918 10.4254 24.9448C9.41377 24.8977 7.20233 24.5683 6.42598 24.3801C5.64962 24.1919 4.33218 23.7685 3.74402 23.3685C3.15587 22.9686 2.26189 22.4745 1.69727 21.8864C1.13264 21.2982 0.944444 21.1571 0.615078 20.7101C0.285712 20.2631 0.00340047 19.7926 0.75623 19.0633C1.50906 18.334 2.49715 19.3691 2.49715 19.3691C2.49715 19.3691 3.83812 20.6866 4.87326 21.4394C5.90841 22.1922 6.47303 22.451 7.50817 22.9921C8.54331 23.5332 9.5314 23.839 10.943 23.9331C12.3545 24.0273 13.6249 23.8861 14.6836 23.5802Z" fill="#7E7E7E"/>
</svg>
