<svg width="40" height="40" viewBox="0 0 40 40" fill="none" xmlns="http://www.w3.org/2000/svg">
<path d="M19.9993 5C21.8403 5 23.3327 6.49238 23.3327 8.33333L23.3327 31.6667C23.3327 33.5076 21.8403 35 19.9993 35C18.1584 35 16.666 33.5076 16.666 31.6667L16.666 8.33333C16.666 6.49238 18.1584 5 19.9993 5Z" fill="#700000"/>
<path opacity="0.4" d="M6.66634 20C8.50729 20 9.99967 21.4924 9.99967 23.3333L9.99967 31.6667C9.99967 33.5076 8.50729 35 6.66634 35C4.82539 35 3.33301 33.5076 3.33301 31.6667L3.33301 23.3333C3.33301 21.4924 4.82539 20 6.66634 20Z" fill="#700000"/>
<path opacity="0.4" d="M33.3333 13.3334C35.1743 13.3334 36.6667 14.8258 36.6667 16.6667L36.6667 31.6667C36.6667 33.5077 35.1743 35 33.3333 35C31.4924 35 30 33.5077 30 31.6667L30 16.6667C30 14.8258 31.4924 13.3334 33.3333 13.3334Z" fill="#700000"/>
</svg>
