<svg width="40" height="40" viewBox="0 0 40 40" fill="none" xmlns="http://www.w3.org/2000/svg">
<g opacity="0.4">
<path fill-rule="evenodd" clip-rule="evenodd" d="M20 4.58337C12.4061 4.58337 6.25 10.7395 6.25 18.3334V22.9167H3.75V18.3334C3.75 9.35875 11.0254 2.08337 20 2.08337C28.9746 2.08337 36.25 9.35875 36.25 18.3334V22.9167H33.75V18.3334C33.75 10.7395 27.5939 4.58337 20 4.58337Z" fill="#700000"/>
<path fill-rule="evenodd" clip-rule="evenodd" d="M35 22.0834C35.6904 22.0834 36.25 22.643 36.25 23.3334V26.6667C36.25 32.8799 31.2132 37.9167 25 37.9167H20C19.3096 37.9167 18.75 37.3571 18.75 36.6667C18.75 35.9763 19.3096 35.4167 20 35.4167H25C29.8325 35.4167 33.75 31.4992 33.75 26.6667V23.3334C33.75 22.643 34.3096 22.0834 35 22.0834Z" fill="#700000"/>
</g>
<path fill-rule="evenodd" clip-rule="evenodd" d="M23.75 21.6667C23.75 18.215 26.5482 15.4167 30 15.4167C33.4518 15.4167 36.25 18.215 36.25 21.6667V25.0001C36.25 28.4519 33.4518 31.2501 30 31.2501C26.5482 31.2501 23.75 28.4519 23.75 25.0001V21.6667Z" fill="#700000"/>
<path fill-rule="evenodd" clip-rule="evenodd" d="M3.75 21.6667C3.75 18.215 6.54822 15.4167 10 15.4167C13.4518 15.4167 16.25 18.215 16.25 21.6667V25.0001C16.25 28.4519 13.4518 31.2501 10 31.2501C6.54822 31.2501 3.75 28.4519 3.75 25.0001V21.6667Z" fill="#700000"/>
</svg>
