<svg width="40" height="40" viewBox="0 0 40 40" fill="none" xmlns="http://www.w3.org/2000/svg">
<path d="M29.9998 13.3333H33.3332C35.1741 13.3333 36.6665 14.8257 36.6665 16.6667V31.6667C36.6665 33.5076 35.1741 35 33.3332 35H29.9998C28.1589 35 26.6665 33.5076 26.6665 31.6667V16.6667C26.6665 14.8257 28.1589 13.3333 29.9998 13.3333Z" fill="#700000"/>
<path opacity="0.4" d="M13.5385 35H19.6481C20.9643 35 22.251 34.6104 23.3461 33.8803L25.9245 32.1614C26.3881 31.8523 26.6666 31.3319 26.6666 30.7747V17.1093C26.6666 16.8192 26.5909 16.5342 26.447 16.2824L20.4798 5.83977C20.1831 5.32048 19.6309 5 19.0328 5H17.7855C14.4576 5 12.4726 8.70894 14.3186 11.4779L14.9392 12.4088C15.6776 13.5164 14.8836 15 13.5524 15H7.60255C5.43398 15 3.84279 17.038 4.36875 19.1418L7.07086 29.9502C7.8128 32.918 10.4794 35 13.5385 35Z" fill="#700000"/>
</svg>
