<svg width="21" height="32" viewBox="0 0 21 32" fill="none" xmlns="http://www.w3.org/2000/svg">
<g filter="url(#filter0_d_380_4738)">
<path d="M17.2564 22.6573C17.5978 22.2081 18.2753 20.8604 18.2753 20.8604C18.2753 20.8604 18.0238 22.4237 17.7183 23.1065C17.4128 23.7893 16.9277 24.1487 16.5144 24.6159C16.1011 25.083 15.3285 25.6221 14.7175 25.9276C14.1066 26.233 12.8488 26.4666 12.6511 26.4846C12.4535 26.5026 11.7168 26.6823 11.4652 26.1252C11.2136 25.5682 12.13 25.2268 12.6511 25.101C13.1722 24.9752 14.0167 24.7776 14.3402 24.6698C14.6636 24.562 15.4416 24.2565 15.765 24.0229C16.0885 23.7893 16.915 23.1065 17.2564 22.6573Z" fill="#700000"/>
<path d="M9.65086 9.95345C8.89617 10.4925 8.75242 10.4745 8.06962 11.2831C7.38681 12.0917 7.45868 11.948 7.08134 12.9003C6.704 13.8526 6.82978 13.637 6.63213 14.2839C6.43447 14.9308 6.43447 14.9667 6.3626 15.6854C6.29072 16.4042 6.4165 16.9768 6.4165 17.0151C6.4165 17.087 6.14697 16.1706 6.14697 15.5776C6.14697 14.9847 6.3626 13.4214 6.47041 12.9901C6.57822 12.5589 6.77814 11.4324 7.29697 10.4925C7.81579 9.55257 8.41102 8.65971 9.20164 8.01284C9.99226 7.36597 11.9665 6.3901 12.5415 6.13853C13.1165 5.88697 14.7 5.5152 15.4008 5.47926C16.1016 5.44332 16.9282 5.58707 17.1977 5.74879C17.4672 5.9105 17.8805 5.94645 17.9703 6.79097C18.0602 7.6355 16.7485 7.9769 16.5688 8.01283C16.3891 8.04877 12.9211 8.51596 12.3102 8.69564C11.6993 8.87533 10.4055 9.41439 9.65086 9.95345Z" fill="#700000"/>
<path d="M8.86004 21.5971C9.43504 22.0463 10.8725 22.9986 10.8725 22.9986C10.8725 22.9986 8.86004 21.9744 8.01552 21.3635C7.17099 20.7526 6.18271 19.7822 5.7335 19.3151C5.28429 18.8479 4.29601 17.6799 3.9546 17.033C3.6132 16.3862 3.39758 15.5776 3.23586 14.8948C3.07414 14.212 2.9843 13.3674 3.00227 12.8823C3.02024 12.3971 3.14602 10.9956 3.23586 10.7261C3.3257 10.4565 3.68507 9.79169 4.2421 9.79169C4.79913 9.79169 5.05069 10.3128 5.05069 10.6182C5.05069 10.9237 4.99679 11.6784 4.94288 12.505C4.92388 12.7963 4.94288 13.6549 4.94288 14.212C4.94288 14.769 4.90694 14.9667 5.1585 16.2245C5.41006 17.4823 5.84131 18.0932 6.47021 19.0815C7.09911 20.0697 8.28504 21.1479 8.86004 21.5971Z" fill="#700000"/>
<path d="M14.215 23.4838C15.0236 23.2502 16.8384 22.19 16.8384 22.19C16.8384 22.19 14.4306 23.8791 13.8377 24.0947C13.2447 24.3103 11.7353 24.5619 10.9627 24.5259C10.19 24.49 8.50097 24.2385 7.908 24.0947C7.31503 23.9509 6.3088 23.6275 5.85958 23.3221C5.41036 23.0166 4.72756 22.6392 4.29631 22.19C3.86506 21.7408 3.72131 21.633 3.46975 21.2916C3.21819 20.9502 3.00256 20.5908 3.57756 20.0338C4.15256 19.4768 4.90724 20.2674 4.90724 20.2674C4.90724 20.2674 5.93145 21.2736 6.72207 21.8486C7.51269 22.4236 7.94394 22.6213 8.73456 23.0345C9.52518 23.4478 10.2799 23.6814 11.358 23.7533C12.4361 23.8252 13.4064 23.7173 14.215 23.4838Z" fill="#700000"/>
</g>
<defs>
<filter id="filter0_d_380_4738" x="0.894737" y="3.36843" width="19.4859" height="25.2631" filterUnits="userSpaceOnUse" color-interpolation-filters="sRGB">
<feFlood flood-opacity="0" result="BackgroundImageFix"/>
<feColorMatrix in="SourceAlpha" type="matrix" values="0 0 0 0 0 0 0 0 0 0 0 0 0 0 0 0 0 0 127 0" result="hardAlpha"/>
<feOffset/>
<feGaussianBlur stdDeviation="1.05263"/>
<feComposite in2="hardAlpha" operator="out"/>
<feColorMatrix type="matrix" values="0 0 0 0 0.945098 0 0 0 0 0.905882 0 0 0 0 0.905882 0 0 0 0.2 0"/>
<feBlend mode="normal" in2="BackgroundImageFix" result="effect1_dropShadow_380_4738"/>
<feBlend mode="normal" in="SourceGraphic" in2="effect1_dropShadow_380_4738" result="shape"/>
</filter>
</defs>
</svg>
