<svg width="28" height="34" viewBox="0 0 28 34" fill="none" xmlns="http://www.w3.org/2000/svg">
<path opacity="0.4" d="M7.33342 33.6667C3.65152 33.6667 0.666749 30.6819 0.666749 27L0.666748 7.00004C0.666748 3.31814 3.65152 0.333375 7.33341 0.333375L20.6667 0.333374C24.3486 0.333374 27.3334 3.31814 27.3334 7.00004V27C27.3334 30.6819 24.3486 33.6667 20.6667 33.6667H7.33342Z" fill="#700000"/>
<path fill-rule="evenodd" clip-rule="evenodd" d="M6.0835 7C6.0835 6.30964 6.64314 5.75 7.3335 5.75H20.6668C21.3572 5.75 21.9168 6.30964 21.9168 7C21.9168 7.69036 21.3572 8.25 20.6668 8.25H7.3335C6.64314 8.25 6.0835 7.69036 6.0835 7Z" fill="#700000"/>
<path d="M8.5835 13.6667C8.5835 14.3571 8.02385 14.9167 7.3335 14.9167C6.64314 14.9167 6.0835 14.3571 6.0835 13.6667C6.0835 12.9764 6.64314 12.4167 7.3335 12.4167C8.02385 12.4167 8.5835 12.9764 8.5835 13.6667Z" fill="#700000"/>
<path d="M15.2502 13.6667C15.2502 14.3571 14.6905 14.9167 14.0002 14.9167C13.3098 14.9167 12.7502 14.3571 12.7502 13.6667C12.7502 12.9764 13.3098 12.4167 14.0002 12.4167C14.6905 12.4167 15.2502 12.9764 15.2502 13.6667Z" fill="#700000"/>
<path d="M21.9168 13.6667C21.9168 14.3571 21.3572 14.9167 20.6668 14.9167C19.9765 14.9167 19.4168 14.3571 19.4168 13.6667C19.4168 12.9764 19.9765 12.4167 20.6668 12.4167C21.3572 12.4167 21.9168 12.9764 21.9168 13.6667Z" fill="#700000"/>
<path d="M8.5835 20.3334C8.5835 21.0237 8.02385 21.5834 7.3335 21.5834C6.64314 21.5834 6.0835 21.0237 6.0835 20.3334C6.0835 19.643 6.64314 19.0834 7.3335 19.0834C8.02385 19.0834 8.5835 19.643 8.5835 20.3334Z" fill="#700000"/>
<path d="M15.2502 20.3334C15.2502 21.0237 14.6905 21.5834 14.0002 21.5834C13.3098 21.5834 12.7502 21.0237 12.7502 20.3334C12.7502 19.643 13.3098 19.0834 14.0002 19.0834C14.6905 19.0834 15.2502 19.643 15.2502 20.3334Z" fill="#700000"/>
<path d="M21.9168 20.3334C21.9168 21.0237 21.3572 21.5834 20.6668 21.5834C19.9765 21.5834 19.4168 21.0237 19.4168 20.3334C19.4168 19.643 19.9765 19.0834 20.6668 19.0834C21.3572 19.0834 21.9168 19.643 21.9168 20.3334Z" fill="#700000"/>
<path d="M8.5835 27C8.5835 27.6904 8.02385 28.25 7.3335 28.25C6.64314 28.25 6.0835 27.6904 6.0835 27C6.0835 26.3096 6.64314 25.75 7.3335 25.75C8.02385 25.75 8.5835 26.3096 8.5835 27Z" fill="#700000"/>
<path d="M15.2502 27C15.2502 27.6904 14.6905 28.25 14.0002 28.25C13.3098 28.25 12.7502 27.6904 12.7502 27C12.7502 26.3096 13.3098 25.75 14.0002 25.75C14.6905 25.75 15.2502 26.3096 15.2502 27Z" fill="#700000"/>
<path d="M21.9168 27C21.9168 27.6904 21.3572 28.25 20.6668 28.25C19.9765 28.25 19.4168 27.6904 19.4168 27C19.4168 26.3096 19.9765 25.75 20.6668 25.75C21.3572 25.75 21.9168 26.3096 21.9168 27Z" fill="#700000"/>
</svg>
