<svg width="24" height="34" viewBox="0 0 24 34" fill="none" xmlns="http://www.w3.org/2000/svg">
<path d="M5.33325 27H18.6666V29.6667C18.6666 31.8758 16.8757 33.6667 14.6666 33.6667H9.33325C7.12411 33.6667 5.33325 31.8758 5.33325 29.6667V27Z" fill="#700000"/>
<path opacity="0.4" d="M5.33325 27H18.6666V22.619C18.6666 21.9652 18.9939 21.3615 19.4947 20.9413C22.0452 18.8012 23.6666 15.5899 23.6666 12C23.6666 5.55672 18.4432 0.333374 11.9999 0.333374C5.5566 0.333374 0.333252 5.55672 0.333252 12C0.333252 15.5899 1.95467 18.8012 4.50513 20.9413C5.00597 21.3615 5.33325 21.9652 5.33325 22.619V27Z" fill="#700000"/>
<path fill-rule="evenodd" clip-rule="evenodd" d="M7.78262 11.1161C8.27078 10.628 9.06223 10.628 9.55039 11.1161L11.9998 13.5656L14.4493 11.1161C14.9374 10.628 15.7289 10.628 16.2171 11.1161C16.7052 11.6043 16.7052 12.3957 16.2171 12.8839L13.2498 15.8511V28.6667C13.2498 29.357 12.6902 29.9167 11.9998 29.9167C11.3095 29.9167 10.7498 29.357 10.7498 28.6667V15.8511L7.78262 12.8839C7.29447 12.3957 7.29447 11.6043 7.78262 11.1161Z" fill="#700000"/>
</svg>
