<svg width="31" height="34" viewBox="0 0 31 34" fill="none" xmlns="http://www.w3.org/2000/svg">
<path opacity="0.4" d="M17.4764 8.66671L10.5234 8.66671L8.1883 5.9883C5.89924 3.36275 8.56967 -0.561666 11.9117 0.516454L13.458 1.01528C13.81 1.12885 14.1898 1.12885 14.5419 1.01528L16.0881 0.516454C19.4302 -0.561665 22.1006 3.36275 19.8115 5.9883L17.4764 8.66671Z" fill="#700000"/>
<path opacity="0.4" d="M3.47373 14.0172C4.77834 9.8425 8.64468 7 13.0185 7H14.9814C19.3552 7 23.2216 9.8425 24.5262 14.0173L26.6095 20.6839C28.6218 27.1232 23.8111 33.6667 17.0647 33.6667H10.9352C4.18879 33.6667 -0.621888 27.1232 1.39039 20.6839L3.47373 14.0172Z" fill="#700000"/>
<path d="M13.9995 30.3334C13.9995 28.4924 15.4919 27 17.3328 27H27.3328C29.1738 27 30.6662 28.4924 30.6662 30.3334C30.6662 32.1743 29.1738 33.6667 27.3328 33.6667H17.3328C15.4919 33.6667 13.9995 32.1743 13.9995 30.3334Z" fill="#700000"/>
<path d="M13.9995 23.6667C13.9995 21.8258 15.4919 20.3334 17.3328 20.3334H26.2217H27.3328C29.1738 20.3334 30.6662 21.8258 30.6662 23.6667C30.6662 25.5077 29.1738 27 27.3328 27H17.3328C15.4919 27 13.9995 25.5077 13.9995 23.6667Z" fill="#700000"/>
</svg>
