<svg width="28" height="34" viewBox="0 0 28 34" fill="none" xmlns="http://www.w3.org/2000/svg">
<path opacity="0.4" d="M17.4764 8.66665L10.5234 8.66664L8.1883 5.98824C5.89924 3.36269 8.56967 -0.561727 11.9117 0.516393L13.458 1.01521C13.81 1.12878 14.1898 1.12879 14.5419 1.01521L16.0881 0.516393C19.4302 -0.561726 22.1006 3.36269 19.8115 5.98824L17.4764 8.66665Z" fill="#700000"/>
<path opacity="0.4" d="M3.47373 14.0172C4.77834 9.8425 8.64468 7 13.0185 7H14.9814C19.3552 7 23.2216 9.8425 24.5262 14.0173L26.6095 20.6839C28.6218 27.1232 23.8111 33.6667 17.0647 33.6667H10.9352C4.18879 33.6667 -0.621888 27.1232 1.39039 20.6839L3.47373 14.0172Z" fill="#700000"/>
<path d="M18.1666 21.1666C18.1666 18.8655 16.3011 17 13.9999 17C11.6987 17 9.83325 18.8655 9.83325 21.1666C9.83325 23.4678 11.6987 25.3333 13.9999 25.3333C16.3011 25.3333 18.1666 23.4678 18.1666 21.1666Z" fill="#700000"/>
</svg>
