<svg width="28" height="28" viewBox="0 0 28 28" fill="none" xmlns="http://www.w3.org/2000/svg">
<path opacity="0.4" d="M15.4142 0.666687H12.5859C11.0239 0.666687 9.75764 1.86059 9.75764 3.33335C9.75764 5.01871 7.9544 6.0902 6.47416 5.28442L6.32381 5.20258C4.97106 4.4662 3.2413 4.9032 2.46029 6.17864L1.04614 8.48804C0.26513 9.76349 0.728617 11.3944 2.08137 12.1308C3.56232 12.9369 3.56232 15.0631 2.08137 15.8693C0.728615 16.6056 0.265128 18.2365 1.04614 19.512L2.46029 21.8214C3.2413 23.0968 4.97106 23.5338 6.32381 22.7975L6.47415 22.7156C7.9544 21.9098 9.75764 22.9813 9.75764 24.6667C9.75764 26.1394 11.0239 27.3334 12.5859 27.3334H15.4142C16.9762 27.3334 18.2425 26.1394 18.2425 24.6667C18.2425 22.9813 20.0458 21.9098 21.526 22.7156L21.6764 22.7974C23.0291 23.5338 24.7589 23.0968 25.5399 21.8214L26.954 19.512C27.735 18.2365 27.2715 16.6056 25.9188 15.8692C24.4379 15.0631 24.4379 12.937 25.9188 12.1308C27.2715 11.3944 27.735 9.76351 26.954 8.48806L25.5399 6.17866C24.7589 4.90322 23.0291 4.46622 21.6764 5.2026L21.526 5.28443C20.0458 6.09022 18.2425 5.01871 18.2425 3.33335C18.2425 1.86059 16.9762 0.666687 15.4142 0.666687Z" fill="#700000"/>
<path d="M19 14C19 16.7614 16.7614 19 14 19C11.2386 19 9 16.7614 9 14C9 11.2386 11.2386 9 14 9C16.7614 9 19 11.2386 19 14Z" fill="#700000"/>
</svg>
