<svg width="40" height="40" viewBox="0 0 40 40" fill="none" xmlns="http://www.w3.org/2000/svg">
<path opacity="0.4" d="M3.33203 24.297V14.2841C3.33203 12.8911 4.04537 11.6176 5.17465 10.9946L8.59106 9.10991C9.51676 8.59924 10.5375 8.33337 11.5725 8.33337H14.3745C16.4427 8.33337 18.371 9.39009 19.6219 11.1516L16.3896 15.6095C15.5977 16.7016 15.6768 18.2759 16.5731 19.2648C17.5445 20.3366 19.1196 20.3366 20.091 19.2648L22.4497 16.6624L26.2678 24.3855C27.3124 26.4985 26.2663 29.1308 24.1499 29.7146L18.2669 31.3373C16.1466 31.9221 13.9111 31.7245 11.9023 30.7746L5.3523 27.6774C4.12669 27.0979 3.33203 25.7682 3.33203 24.297Z" fill="#700000"/>
<path d="M36.6647 24.711V14.2841C36.6647 12.8911 35.9513 11.6176 34.822 10.9946L31.4056 9.10991C30.4799 8.59924 29.4592 8.33337 28.4242 8.33337H24.8688C22.8436 8.33337 20.9282 9.34909 19.663 11.0939L16.3889 15.6095C15.597 16.7016 15.6761 18.2759 16.5724 19.2648C17.5438 20.3366 19.1189 20.3366 20.0903 19.2648L22.449 16.6624L26.2671 24.3855C26.9319 25.7302 26.7499 27.2853 25.9842 28.3888H33.3313C35.1723 28.3888 36.6647 26.7422 36.6647 24.711Z" fill="#700000"/>
</svg>
