<svg width="22" height="16" viewBox="0 0 22 16" fill="none" xmlns="http://www.w3.org/2000/svg">
<path fill-rule="evenodd" clip-rule="evenodd" d="M3.79314 0.809224C4.45701 0.442991 5.19378 0.25 5.94427 0.25H7.62547C8.81611 0.25 9.92677 0.731713 10.774 1.54628C11.6276 0.72535 12.7413 0.25 13.9225 0.25H16.0557C16.8062 0.25 17.543 0.442991 18.2069 0.809224L20.2567 1.94005C21.1961 2.45829 21.75 3.48835 21.75 4.57043V10.8266C21.75 12.3884 20.5865 13.7832 19 13.7832H14.9535C14.6236 14.139 14.1984 14.4115 13.6902 14.5517L10.1603 15.5253C8.7131 15.9245 7.18737 15.7886 5.82157 15.1428L1.89156 13.2844C0.866895 12.7999 0.25 11.7197 0.25 10.5782V4.57043C0.25 3.48834 0.803867 2.45829 1.7433 1.94005L3.79314 0.809224ZM9.82677 2.71956C9.22709 2.09674 8.4403 1.75 7.62547 1.75H5.94427C5.45281 1.75 4.96467 1.87605 4.51769 2.12262L2.46785 3.25345C2.05214 3.48278 1.75 3.98089 1.75 4.57043V10.5782C1.75 11.2021 2.08669 11.7175 2.53277 11.9284L6.46278 13.7867C7.50752 14.2807 8.66442 14.3819 9.76148 14.0793L13.2913 13.1057C14.0432 12.8983 14.5376 11.8708 14.0891 10.9637L12.2865 7.31734L11.6111 8.06251C10.7305 9.03405 9.26946 9.03405 8.3889 8.06251C7.60916 7.2022 7.54726 5.86336 8.22734 4.92543L9.82677 2.71956Z" fill="#700000"/>
</svg>
