<svg width="32" height="32" viewBox="0 0 32 32" fill="none" xmlns="http://www.w3.org/2000/svg">
<path fill-rule="evenodd" clip-rule="evenodd" d="M8.00033 5.33335C8.00033 6.80611 6.80642 8.00002 5.33366 8.00002C3.8609 8.00002 2.66699 6.80611 2.66699 5.33335C2.66699 3.86059 3.8609 2.66669 5.33366 2.66669C6.80642 2.66669 8.00033 3.86059 8.00033 5.33335ZM8.00033 11.3334V29.3334H2.66699V11.3334H8.00033ZM12.0003 11.3334H17.3337V12.4552C18.1677 12.1604 19.0653 12 20.0003 12C24.4186 12 28.0003 15.5817 28.0003 20V29.3334H22.667V20C22.667 18.5273 21.4731 17.3334 20.0003 17.3334C18.5276 17.3334 17.3337 18.5273 17.3337 20V29.3334H12.0003V20V11.3334Z" fill="white"/>
</svg>
