<svg width="34" height="30" viewBox="0 0 34 30" fill="none" xmlns="http://www.w3.org/2000/svg">
<path fill-rule="evenodd" clip-rule="evenodd" d="M6.99967 0C3.31778 0 0.333008 2.98477 0.333008 6.66667V23.3333C0.333008 27.0152 3.31778 30 6.99967 30H26.9997C30.6816 30 33.6663 27.0152 33.6663 23.3333V6.66667C33.6663 2.98477 30.6816 0 26.9997 0H6.99967ZM7.69306 7.2932C7.11864 6.91026 6.34256 7.06548 5.95962 7.63989C5.57668 8.2143 5.73189 8.99038 6.3063 9.37333L12.6083 13.5747C15.2675 15.3475 18.7319 15.3475 21.3911 13.5747L27.6931 9.37333C28.2675 8.99038 28.4227 8.2143 28.0397 7.63989C27.6568 7.06548 26.8807 6.91026 26.3063 7.2932L20.0043 11.4945C18.1849 12.7075 15.8145 12.7075 13.9951 11.4945L7.69306 7.2932Z" fill="#700000"/>
</svg>
