<svg width="40" height="40" viewBox="0 0 40 40" fill="none" xmlns="http://www.w3.org/2000/svg">
<path opacity="0.4" d="M34.0177 11.6V16.3333L12.3344 32.2333L7.95104 28.95C6.86771 28.1333 5.98438 26.3833 5.98438 25.0333V11.6C5.98438 9.73333 7.41771 7.66666 9.16771 7.01666L18.2844 3.59999C19.2344 3.24999 20.7677 3.24999 21.7177 3.59999L30.8344 7.01666C32.5844 7.66666 34.0177 9.73333 34.0177 11.6Z" fill="#700000"/>
<path d="M34.0172 18.6167V25.0333C34.0172 26.3833 33.1339 28.1333 32.0505 28.95L22.9339 35.7667C22.1339 36.3667 21.0672 36.6667 20.0005 36.6667C18.9339 36.6667 17.8672 36.3667 17.0672 35.7667L13.8672 33.3833L34.0172 18.6167Z" fill="#700000"/>
</svg>
