<svg width="41" height="40" viewBox="0 0 41 40" fill="none" xmlns="http://www.w3.org/2000/svg">
<path d="M18.2669 6.91675V10H15.8003C13.1169 10 11.7669 11.35 11.7669 14.0333V30H7.51697C5.13363 30 3.93359 28.8 3.93359 26.4167V6.91675C3.93359 4.53341 5.13363 3.33337 7.51697 3.33337H14.6836C17.0669 3.33337 18.2669 4.53341 18.2669 6.91675Z" fill="#700000"/>
<path opacity="0.4" d="M29.5528 14.0333V32.6334C29.5528 35.3167 28.2195 36.6667 25.5362 36.6667H15.8028C13.1195 36.6667 11.7695 35.3167 11.7695 32.6334V14.0333C11.7695 11.35 13.1195 10 15.8028 10H25.5362C28.2195 10 29.5528 11.35 29.5528 14.0333Z" fill="#700000"/>
<path d="M37.2669 6.91675V26.4167C37.2669 28.8 36.0668 30 33.6835 30H29.5502V14.0333C29.5502 11.35 28.2169 10 25.5336 10H22.9336V6.91675C22.9336 4.53341 24.1335 3.33337 26.5169 3.33337H33.6835C36.0668 3.33337 37.2669 4.53341 37.2669 6.91675Z" fill="#700000"/>
<path d="M23.9362 19.5834H17.2695C16.5862 19.5834 16.0195 19.0167 16.0195 18.3334C16.0195 17.65 16.5862 17.0834 17.2695 17.0834H23.9362C24.6195 17.0834 25.1862 17.65 25.1862 18.3334C25.1862 19.0167 24.6195 19.5834 23.9362 19.5834Z" fill="#700000"/>
<path d="M23.9362 24.5834H17.2695C16.5862 24.5834 16.0195 24.0167 16.0195 23.3334C16.0195 22.65 16.5862 22.0834 17.2695 22.0834H23.9362C24.6195 22.0834 25.1862 22.65 25.1862 23.3334C25.1862 24.0167 24.6195 24.5834 23.9362 24.5834Z" fill="#700000"/>
<path d="M21.8516 31.6666V36.6666H19.3516V31.6666C19.3516 30.9833 19.9182 30.4166 20.6016 30.4166C21.2849 30.4166 21.8516 30.9833 21.8516 31.6666Z" fill="#700000"/>
</svg>
