<svg width="41" height="40" viewBox="0 0 41 40" fill="none" xmlns="http://www.w3.org/2000/svg">
<path d="M28.9356 15C28.0268 15 27.152 15.1454 26.3332 15.4144C25.1679 12.6908 22.9959 10.5005 20.2852 9.31116C21.5024 7.70449 23.4311 6.66663 25.6023 6.66663C29.2842 6.66663 32.2689 9.65139 32.2689 13.3333C32.2689 14.1069 32.1372 14.8498 31.8948 15.5407C30.9752 15.1913 29.9778 15 28.9356 15Z" fill="#700000"/>
<path fill-rule="evenodd" clip-rule="evenodd" d="M25.6016 0.416626C26.2919 0.416626 26.8516 0.97627 26.8516 1.66663V3.33329C26.8516 4.02365 26.2919 4.58329 25.6016 4.58329C24.9112 4.58329 24.3516 4.02365 24.3516 3.33329V1.66663C24.3516 0.97627 24.9112 0.416626 25.6016 0.416626Z" fill="#700000"/>
<path fill-rule="evenodd" clip-rule="evenodd" d="M34.7354 4.20005C35.2236 4.6882 35.2236 5.47966 34.7354 5.96781L33.5569 7.14632C33.0688 7.63448 32.2773 7.63448 31.7892 7.14632C31.301 6.65817 31.301 5.86671 31.7892 5.37856L32.9677 4.20005C33.4558 3.71189 34.2473 3.71189 34.7354 4.20005Z" fill="#700000"/>
<path fill-rule="evenodd" clip-rule="evenodd" d="M38.5156 13.3333C38.5156 14.0236 37.956 14.5833 37.2656 14.5833L35.599 14.5833C34.9086 14.5833 34.349 14.0236 34.349 13.3333C34.349 12.6429 34.9086 12.0833 35.599 12.0833L37.2656 12.0833C37.956 12.0833 38.5156 12.6429 38.5156 13.3333Z" fill="#700000"/>
<path opacity="0.4" d="M3.93359 19.9999C3.93359 26.4432 9.15694 31.6666 15.6003 31.6666H28.9336C33.536 31.6666 37.2669 27.9356 37.2669 23.3333C37.2669 19.773 35.0343 16.7343 31.8928 15.5406C30.9732 15.1912 29.9757 14.9999 28.9336 14.9999C28.0248 14.9999 27.15 15.1454 26.3312 15.4143C25.1658 12.6907 22.9939 10.5004 20.2831 9.31112C18.8498 8.68225 17.2658 8.33325 15.6003 8.33325C9.15694 8.33325 3.93359 13.5566 3.93359 19.9999Z" fill="#700000"/>
<path d="M29.7656 32.4999C29.7656 34.3409 28.6463 34.9999 27.2656 34.9999C25.8849 34.9999 24.7656 34.3409 24.7656 32.4999C24.7656 30.659 27.2656 28.3333 27.2656 28.3333C27.2656 28.3333 29.7656 30.659 29.7656 32.4999Z" fill="#700000"/>
<path d="M7.26562 31.6666L15.599 21.6666V28.3333H20.599L12.2656 38.3333V31.6666H7.26562Z" fill="#700000"/>
</svg>
