<svg width="41" height="40" viewBox="0 0 41 40" fill="none" xmlns="http://www.w3.org/2000/svg">
<path opacity="0.4" d="M17.2669 5H10.6003C6.91836 5 3.93359 7.98477 3.93359 11.6667V25C3.93359 28.1087 6.06137 30.7204 8.94 31.4583C9.04757 29.7144 10.496 28.3333 12.2669 28.3333C14.1079 28.3333 15.6003 29.8257 15.6003 31.6667H23.9336V11.6667C23.9336 7.98477 20.9488 5 17.2669 5Z" fill="#700000"/>
<path d="M23.9336 31.6666V11.6666H29.2821C30.129 11.6666 30.9441 11.989 31.5619 12.5682L36.2134 16.9289C36.8856 17.5591 37.2669 18.4394 37.2669 19.3607V28.3333C37.2669 30.1742 35.7745 31.6666 33.9336 31.6666H23.9336Z" fill="#700000"/>
<path d="M16.4349 31.6667C16.4349 33.9679 14.5694 35.8333 12.2682 35.8333C9.96704 35.8333 8.10156 33.9679 8.10156 31.6667C8.10156 31.5792 8.10426 31.4923 8.10957 31.4062C8.24403 29.2263 10.0545 27.5 12.2682 27.5C14.5694 27.5 16.4349 29.3655 16.4349 31.6667Z" fill="#700000"/>
<path opacity="0.4" d="M34.7592 31.6667C34.7592 33.9679 32.8938 35.8333 30.5926 35.8333C28.2914 35.8333 26.4259 33.9679 26.4259 31.6667C26.4259 31.5792 26.4286 31.4923 26.4339 31.4062C26.5684 29.2263 28.3789 27.5 30.5926 27.5C32.8938 27.5 34.7592 29.3655 34.7592 31.6667Z" fill="#700000"/>
</svg>
