<svg width="41" height="40" viewBox="0 0 41 40" fill="none" xmlns="http://www.w3.org/2000/svg">
<path fill-rule="evenodd" clip-rule="evenodd" d="M12.832 20.1569V29.3772C12.832 30.4818 13.7275 31.3772 14.832 31.3772H26.3679C27.4725 31.3772 28.3679 30.4818 28.3679 29.3772V20.1568L22.9661 22.5576C21.4597 23.2271 19.7402 23.2271 18.2338 22.5576L12.832 20.1569ZM33.2229 17.9991V26.5221C33.2229 27.3265 33.875 27.9786 34.6793 27.9786C35.4837 27.9786 36.1358 27.3265 36.1358 26.5221V16.7025C36.1181 16.7116 36.1 16.7203 36.0814 16.7286L33.2229 17.9991Z" fill="#700000"/>
<path opacity="0.4" d="M5.1196 14.954L18.2349 9.12493C19.7413 8.45543 21.4608 8.45543 22.9672 9.12493L36.0825 14.954C36.8513 15.2957 36.8513 16.3869 36.0825 16.7286L22.9672 22.5576C21.4608 23.2271 19.7413 23.2271 18.2349 22.5576L5.1196 16.7286C4.35076 16.3869 4.35076 15.2957 5.1196 14.954Z" fill="#700000"/>
</svg>
