<svg width="41" height="40" viewBox="0 0 41 40" fill="none" xmlns="http://www.w3.org/2000/svg">
<path opacity="0.4" d="M37.2682 20C37.2682 24.6 33.5349 28.3333 28.9349 28.3333C28.9349 23.7333 25.2016 20 20.6016 20C25.2016 20 28.9349 16.2666 28.9349 11.6666C33.5349 11.6666 37.2682 15.4 37.2682 20Z" fill="#3F6711"/>
<path d="M28.9349 28.3333C24.3349 28.3333 20.6016 24.6 20.6016 20C25.2016 20 28.9349 23.7333 28.9349 28.3333Z" fill="#3F6711"/>
<path opacity="0.4" d="M28.9362 28.3333C28.9362 32.9333 25.2029 36.6667 20.6029 36.6667C16.0029 36.6667 12.2695 32.9333 12.2695 28.3333C16.8695 28.3333 20.6029 24.6 20.6029 20C20.6029 24.6 24.3362 28.3333 28.9362 28.3333Z" fill="#3F6711"/>
<path d="M28.9349 11.6666C28.9349 16.2666 25.2016 20 20.6016 20C20.6016 15.4 24.3349 11.6666 28.9349 11.6666Z" fill="#3F6711"/>
<path opacity="0.4" d="M28.9362 11.6667C24.3362 11.6667 20.6029 15.4 20.6029 20C20.6029 15.4 16.8695 11.6667 12.2695 11.6667C12.2695 7.06671 16.0029 3.33337 20.6029 3.33337C25.2029 3.33337 28.9362 7.06671 28.9362 11.6667Z" fill="#3F6711"/>
<path d="M20.6029 20C20.6029 24.6 16.8695 28.3333 12.2695 28.3333C12.2695 23.7333 16.0029 20 20.6029 20Z" fill="#3F6711"/>
<path d="M20.6029 20C16.0029 20 12.2695 16.2666 12.2695 11.6666C16.8695 11.6666 20.6029 15.4 20.6029 20Z" fill="#3F6711"/>
<path opacity="0.4" d="M20.6003 20C16.0003 20 12.2669 23.7333 12.2669 28.3333C7.66693 28.3333 3.93359 24.6 3.93359 20C3.93359 15.4 7.66693 11.6666 12.2669 11.6666C12.2669 16.2666 16.0003 20 20.6003 20Z" fill="#3F6711"/>
</svg>
