<svg width="40" height="40" viewBox="0 0 40 40" fill="none" xmlns="http://www.w3.org/2000/svg">
<path d="M8.7487 14.1666C11.7402 14.1666 14.1654 11.7415 14.1654 8.74992C14.1654 5.75838 11.7402 3.33325 8.7487 3.33325C5.75716 3.33325 3.33203 5.75838 3.33203 8.74992C3.33203 11.7415 5.75716 14.1666 8.7487 14.1666Z" fill="#700000"/>
<path d="M8.33203 36.6667C11.0935 36.6667 13.332 34.4282 13.332 31.6667C13.332 28.9053 11.0935 26.6667 8.33203 26.6667C5.57061 26.6667 3.33203 28.9053 3.33203 31.6667C3.33203 34.4282 5.57061 36.6667 8.33203 36.6667Z" fill="#700000"/>
<path d="M31.668 36.6667C34.4294 36.6667 36.668 34.4282 36.668 31.6667C36.668 28.9053 34.4294 26.6667 31.668 26.6667C28.9065 26.6667 26.668 28.9053 26.668 31.6667C26.668 34.4282 28.9065 36.6667 31.668 36.6667Z" fill="#700000"/>
<path opacity="0.4" d="M31.9487 26.6332C30.332 21.9999 25.9654 18.8832 21.0487 18.8832C21.032 18.8832 21.0154 18.8832 20.9987 18.8832L15.1154 18.8999C12.582 18.9332 10.3154 17.2166 9.63203 14.7499V11.6666C9.63203 10.9666 9.06536 10.3999 8.3487 10.3999C7.63203 10.3999 7.08203 10.9666 7.08203 11.6666V30.3666C7.08203 31.0666 7.6487 31.6332 8.3487 31.6332C9.0487 31.6332 9.63203 31.0666 9.63203 30.3666V19.3332C11.0987 20.6332 13.0154 21.4332 15.0987 21.4332C15.1154 21.4332 15.1154 21.4332 15.132 21.4332L21.0154 21.4166C21.032 21.4166 21.032 21.4166 21.0487 21.4166C24.8654 21.4166 28.282 23.8332 29.532 27.4499C29.7154 27.9832 30.2154 28.2999 30.732 28.2999C30.8654 28.2999 31.0154 28.2832 31.1487 28.2332C31.832 28.0332 32.182 27.2999 31.9487 26.6332Z" fill="#700000"/>
</svg>
