<svg width="41" height="40" viewBox="0 0 41 40" fill="none" xmlns="http://www.w3.org/2000/svg">
<path d="M37.2669 37.9166H3.93359C3.25026 37.9166 2.68359 37.35 2.68359 36.6666C2.68359 35.9833 3.25026 35.4166 3.93359 35.4166H37.2669C37.9503 35.4166 38.5169 35.9833 38.5169 36.6666C38.5169 37.35 37.9503 37.9166 37.2669 37.9166Z" fill="#700000"/>
<path opacity="0.4" d="M35.6029 16.6334V36.6667H5.51953L5.60286 16.6167C5.60286 15.6 6.06953 14.6335 6.8862 14.0001L18.5529 4.93345C19.7529 3.98345 21.4529 3.98345 22.6529 4.93345L24.8862 6.66674L32.2695 12.4001L34.3195 14.0001C35.1362 14.6335 35.6029 15.6 35.6029 16.6334Z" fill="#700000"/>
<path d="M22.2669 28.3334H18.9336C17.5503 28.3334 16.4336 29.45 16.4336 30.8334V36.6667H24.7669V30.8334C24.7669 29.45 23.6503 28.3334 22.2669 28.3334Z" fill="#700000"/>
<path d="M16.4336 22.9167H13.1003C12.1836 22.9167 11.4336 22.1667 11.4336 21.25V18.75C11.4336 17.8334 12.1836 17.0834 13.1003 17.0834H16.4336C17.3503 17.0834 18.1003 17.8334 18.1003 18.75V21.25C18.1003 22.1667 17.3503 22.9167 16.4336 22.9167Z" fill="#700000"/>
<path d="M28.1016 22.9167H24.7682C23.8516 22.9167 23.1016 22.1667 23.1016 21.25V18.75C23.1016 17.8334 23.8516 17.0834 24.7682 17.0834H28.1016C29.0182 17.0834 29.7682 17.8334 29.7682 18.75V21.25C29.7682 22.1667 29.0182 22.9167 28.1016 22.9167Z" fill="#700000"/>
<path d="M32.2701 12.4L24.8867 6.66663H30.5701C31.4867 6.66663 32.2367 7.39994 32.2367 8.31661L32.2701 12.4Z" fill="#700000"/>
</svg>
