<svg width="41" height="40" viewBox="0 0 41 40" fill="none" xmlns="http://www.w3.org/2000/svg">
<path opacity="0.4" fill-rule="evenodd" clip-rule="evenodd" d="M32.7777 11.7335C33.3521 12.1164 33.5073 12.8925 33.1244 13.4669L23.4894 27.9194C23.1065 28.4938 22.3304 28.649 21.756 28.266C21.1816 27.8831 21.0264 27.107 21.4093 26.5326L31.0443 12.0802C31.4272 11.5058 32.2033 11.3506 32.7777 11.7335ZM8.93367 21.2499C9.34788 20.6976 10.1314 20.5857 10.6837 20.9999L18.6834 26.9997C19.2356 27.4139 19.3476 28.1974 18.9334 28.7497C18.5191 29.3019 17.7356 29.4139 17.1834 28.9997L9.18367 22.9999C8.63138 22.5857 8.51945 21.8022 8.93367 21.2499Z" fill="#700000"/>
<path d="M10.6003 20C10.6003 20.7504 10.3523 21.4429 9.93375 22.0001C9.32561 22.8096 8.35742 23.3333 7.26693 23.3333C5.42598 23.3333 3.93359 21.8409 3.93359 20C3.93359 18.159 5.42598 16.6666 7.26693 16.6666C9.10788 16.6666 10.6003 18.159 10.6003 20Z" fill="#700000"/>
<path d="M23.9336 30C23.9336 31.8409 22.4412 33.3333 20.6003 33.3333C18.7593 33.3333 17.2669 31.8409 17.2669 30C17.2669 29.2495 17.5149 28.557 17.9334 27.9998C18.5416 27.1903 19.5098 26.6666 20.6003 26.6666C21.2844 26.6666 21.9203 26.8727 22.4495 27.2262C23.3443 27.8239 23.9336 28.8431 23.9336 30Z" fill="#700000"/>
<path d="M37.2669 9.99996C37.2669 11.8409 35.7745 13.3333 33.9336 13.3333C33.2495 13.3333 32.6135 13.1272 32.0844 12.7738C31.1896 12.176 30.6003 11.1568 30.6003 9.99996C30.6003 8.15901 32.0926 6.66663 33.9336 6.66663C35.7745 6.66663 37.2669 8.15901 37.2669 9.99996Z" fill="#700000"/>
</svg>
