<svg width="40" height="40" viewBox="0 0 40 40" fill="none" xmlns="http://www.w3.org/2000/svg">
<path opacity="0.4" d="M29.2177 12.95C29.101 12.9334 28.9844 12.9334 28.8677 12.95C26.2844 12.8667 24.2344 10.75 24.2344 8.15004C24.2344 5.50004 26.3844 3.33337 29.051 3.33337C31.701 3.33337 33.8677 5.48337 33.8677 8.15004C33.851 10.75 31.801 12.8667 29.2177 12.95Z" fill="#3F6711"/>
<path opacity="0.4" d="M34.6513 24.4999C32.7846 25.7499 30.168 26.2166 27.7513 25.8999C28.3846 24.5333 28.718 23.0166 28.7346 21.4166C28.7346 19.7499 28.368 18.1666 27.668 16.7833C30.1346 16.4499 32.7513 16.9166 34.6346 18.1666C37.268 19.8999 37.268 22.7499 34.6513 24.4999Z" fill="#3F6711"/>
<path opacity="0.4" d="M10.732 12.95C10.8487 12.9334 10.9654 12.9334 11.082 12.95C13.6654 12.8667 15.7154 10.75 15.7154 8.15004C15.7154 5.50004 13.5654 3.33337 10.8987 3.33337C8.2487 3.33337 6.08203 5.48337 6.08203 8.15004C6.0987 10.75 8.14869 12.8667 10.732 12.95Z" fill="#3F6711"/>
<path opacity="0.4" d="M10.9159 21.4167C10.9159 23.0333 11.2659 24.5667 11.8992 25.95C9.54922 26.2 7.09922 25.7 5.29922 24.5167C2.66589 22.7667 2.66589 19.9167 5.29922 18.1667C7.08255 16.9667 9.59922 16.4833 11.9659 16.75C11.2826 18.15 10.9159 19.7334 10.9159 21.4167Z" fill="#3F6711"/>
<path d="M20.2 26.45C20.0667 26.4333 19.9167 26.4333 19.7667 26.45C16.7 26.35 14.25 23.8333 14.25 20.7333C14.25 17.5667 16.8 15 19.9833 15C23.15 15 25.7167 17.5667 25.7167 20.7333C25.7167 23.8333 23.2833 26.35 20.2 26.45Z" fill="#3F6711"/>
<path d="M14.782 29.8999C12.2654 31.5832 12.2654 34.3499 14.782 36.0166C17.6487 37.9332 22.3487 37.9332 25.2154 36.0166C27.732 34.3332 27.732 31.5666 25.2154 29.8999C22.3654 27.9832 17.6654 27.9832 14.782 29.8999Z" fill="#3F6711"/>
</svg>
