<svg width="41" height="40" viewBox="0 0 41 40" fill="none" xmlns="http://www.w3.org/2000/svg">
<path opacity="0.4" fill-rule="evenodd" clip-rule="evenodd" d="M29.349 17.9167C27.508 17.9167 26.0156 19.4091 26.0156 21.2501V30.4167C26.0156 34.5589 22.6578 37.9167 18.5156 37.9167C14.3735 37.9167 11.0156 34.5589 11.0156 30.4167V21.6667C11.0156 20.9764 11.5753 20.4167 12.2656 20.4167C12.956 20.4167 13.5156 20.9764 13.5156 21.6667V30.4167C13.5156 33.1782 15.7542 35.4167 18.5156 35.4167C21.277 35.4167 23.5156 33.1782 23.5156 30.4167V21.2501C23.5156 18.0284 26.1273 15.4167 29.349 15.4167C32.5706 15.4167 35.1823 18.0284 35.1823 21.2501V23.3334C35.1823 24.0238 34.6226 24.5834 33.9323 24.5834C33.2419 24.5834 32.6823 24.0238 32.6823 23.3334V21.2501C32.6823 19.4091 31.1899 17.9167 29.349 17.9167Z" fill="#700000"/>
<path d="M37.2682 26.6667C37.2682 28.5077 35.7758 30 33.9349 30C32.0939 30 30.6016 28.5077 30.6016 26.6667C30.6016 24.8258 32.0939 23.3334 33.9349 23.3334C35.7758 23.3334 37.2682 24.8258 37.2682 26.6667Z" fill="#700000"/>
<path fill-rule="evenodd" clip-rule="evenodd" d="M6.01693 3.92261C4.09317 4.46671 2.68359 6.23545 2.68359 8.33341V13.3334C2.68359 18.6261 6.9742 22.9167 12.2669 22.9167C17.5597 22.9167 21.8503 18.6261 21.8503 13.3334V8.33341C21.8503 6.23545 20.4407 4.46672 18.5169 3.92261V6.66659C19.0229 7.04668 19.3503 7.65182 19.3503 8.33341V13.3334C19.3503 17.2454 16.1789 20.4167 12.2669 20.4167C8.35491 20.4167 5.18359 17.2454 5.18359 13.3334V8.33341C5.18359 7.65182 5.51091 7.04668 6.01693 6.66659V3.92261Z" fill="#700000"/>
<path opacity="0.4" fill-rule="evenodd" clip-rule="evenodd" d="M17.2656 2.08337C17.956 2.08337 18.5156 2.64302 18.5156 3.33337V6.66671C18.5156 7.35706 17.956 7.91671 17.2656 7.91671C16.5753 7.91671 16.0156 7.35706 16.0156 6.66671V3.33337C16.0156 2.64302 16.5753 2.08337 17.2656 2.08337Z" fill="#700000"/>
<path opacity="0.4" fill-rule="evenodd" clip-rule="evenodd" d="M7.26562 2.08337C7.95598 2.08337 8.51562 2.64302 8.51562 3.33337V6.66671C8.51562 7.35706 7.95598 7.91671 7.26562 7.91671C6.57527 7.91671 6.01562 7.35706 6.01562 6.66671V3.33337C6.01562 2.64302 6.57527 2.08337 7.26562 2.08337Z" fill="#700000"/>
</svg>
