<svg width="41" height="40" viewBox="0 0 41 40" fill="none" xmlns="http://www.w3.org/2000/svg">
<path opacity="0.4" d="M20.6003 36.6667C29.805 36.6667 37.2669 29.2048 37.2669 20C37.2669 10.7953 29.805 3.33337 20.6003 3.33337C11.3955 3.33337 3.93359 10.7953 3.93359 20C3.93359 29.2048 11.3955 36.6667 20.6003 36.6667Z" fill="#3F6711"/>
<path d="M28.5339 19.8834C27.8339 19.7667 27.2172 20.2668 27.1172 20.9501C26.9172 22.4001 26.2672 23.7001 25.2672 24.7001C22.9672 27.0001 19.4005 27.2334 16.8172 25.4501H18.0672C18.7505 25.4501 19.3172 24.8834 19.3172 24.2001C19.3172 23.5168 18.7505 22.9501 18.0672 22.9501H13.6172C12.9339 22.9501 12.3672 23.5168 12.3672 24.2001V28.6501C12.3672 29.3334 12.9339 29.9001 13.6172 29.9001C14.3005 29.9001 14.8672 29.3334 14.8672 28.6501V27.0834C16.5339 28.4334 18.5505 29.1501 20.5838 29.1501C22.9172 29.1501 25.2505 28.2668 27.0338 26.4834C28.4172 25.1001 29.3005 23.3167 29.5839 21.3167C29.7005 20.6 29.2172 19.9667 28.5339 19.8834Z" fill="#3F6711"/>
<path d="M12.8353 20.1334C13.4519 20.1334 13.9852 19.6834 14.0686 19.0667C14.2686 17.6167 14.9186 16.3167 15.9186 15.3167C18.2186 13.0167 21.7853 12.7833 24.3686 14.5667H23.1186C22.4353 14.5667 21.8686 15.1333 21.8686 15.8167C21.8686 16.5 22.4353 17.0667 23.1186 17.0667H27.5686C28.2519 17.0667 28.8186 16.5 28.8186 15.8167V11.3667C28.8186 10.6834 28.2519 10.1167 27.5686 10.1167C26.8853 10.1167 26.3186 10.6834 26.3186 11.3667V12.9334C22.7353 10.0334 17.4853 10.2167 14.1686 13.5333C12.7853 14.9167 11.9019 16.7 11.6186 18.7C11.5186 19.3833 12.0019 20.0167 12.6853 20.1167C12.7186 20.1334 12.7853 20.1334 12.8353 20.1334Z" fill="#3F6711"/>
</svg>
