<svg width="41" height="40" viewBox="0 0 41 40" fill="none" xmlns="http://www.w3.org/2000/svg">
<path opacity="0.4" fill-rule="evenodd" clip-rule="evenodd" d="M38.3373 32.3096C37.9821 32.9015 37.2143 33.0935 36.6223 32.7383L32.2639 30.1232C30.3224 28.9584 27.8612 29.1239 26.0933 30.5383L25.5443 30.9775C22.653 33.2905 18.5446 33.2905 15.6533 30.9775L15.1043 30.5383C13.3363 29.1239 10.8751 28.9584 8.93366 30.1232L4.57523 32.7383C3.98325 33.0935 3.21542 32.9015 2.86024 32.3096C2.50505 31.7176 2.69701 30.9498 3.28899 30.5946L7.64742 27.9795C10.485 26.277 14.082 26.5189 16.666 28.5861L17.215 29.0253C19.1933 30.6079 22.0043 30.6079 23.9825 29.0253L24.5315 28.5861C27.1155 26.5189 30.7126 26.277 33.5501 27.9795L37.9086 30.5946C38.5005 30.9498 38.6925 31.7176 38.3373 32.3096Z" fill="#700000"/>
<path fill-rule="evenodd" clip-rule="evenodd" d="M38.3373 22.3096C37.9821 22.9015 37.2143 23.0935 36.6223 22.7383L32.2639 20.1232C30.3224 18.9584 27.8612 19.1239 26.0933 20.5383L25.5443 20.9775C22.653 23.2905 18.5446 23.2905 15.6533 20.9775L15.1043 20.5383C13.3363 19.1239 10.8751 18.9584 8.93366 20.1232L4.57523 22.7383C3.98325 23.0935 3.21542 22.9015 2.86024 22.3096C2.50505 21.7176 2.69701 20.9498 3.28899 20.5946L7.64742 17.9795C10.485 16.277 14.082 16.5189 16.666 18.5861L17.215 19.0253C19.1933 20.6079 22.0043 20.6079 23.9825 19.0253L24.5315 18.5861C27.1155 16.5189 30.7126 16.277 33.5501 17.9795L37.9086 20.5946C38.5005 20.9498 38.6925 21.7176 38.3373 22.3096Z" fill="#700000"/>
<path opacity="0.4" fill-rule="evenodd" clip-rule="evenodd" d="M38.3373 12.3096C37.9821 12.9015 37.2143 13.0935 36.6223 12.7383L32.2639 10.1232C30.3224 8.95836 27.8612 9.1239 26.0933 10.5383L25.5443 10.9775C22.653 13.2905 18.5446 13.2905 15.6533 10.9775L15.1043 10.5383C13.3363 9.1239 10.8751 8.95836 8.93366 10.1232L4.57523 12.7383C3.98325 13.0935 3.21542 12.9015 2.86024 12.3096C2.50505 11.7176 2.69701 10.9498 3.28899 10.5946L7.64742 7.97951C10.485 6.27699 14.082 6.51894 16.666 8.58612L17.215 9.02531C19.1933 10.6079 22.0043 10.6079 23.9825 9.02531L24.5315 8.58612C27.1155 6.51894 30.7126 6.27699 33.5501 7.97951L37.9086 10.5946C38.5005 10.9498 38.6925 11.7176 38.3373 12.3096Z" fill="#700000"/>
</svg>
