<svg width="28" height="34" viewBox="0 0 28 34" fill="none" xmlns="http://www.w3.org/2000/svg">
<path opacity="0.4" d="M7.33335 33.6666C3.65146 33.6666 0.666688 30.6818 0.666688 26.9999L0.666687 6.99992C0.666687 3.31802 3.65146 0.333253 7.33335 0.333253L20.6667 0.333252C24.3486 0.333252 27.3334 3.31802 27.3334 6.99992V26.9999C27.3334 30.6818 24.3486 33.6666 20.6667 33.6666H7.33335Z" fill="#700000"/>
<path fill-rule="evenodd" clip-rule="evenodd" d="M6.08337 7C6.08337 6.30964 6.64302 5.75 7.33337 5.75H20.6667C21.3571 5.75 21.9167 6.30964 21.9167 7C21.9167 7.69036 21.3571 8.25 20.6667 8.25H7.33337C6.64302 8.25 6.08337 7.69036 6.08337 7Z" fill="#700000"/>
<path d="M8.58337 13.6665C8.58337 14.3569 8.02373 14.9165 7.33337 14.9165C6.64302 14.9165 6.08337 14.3569 6.08337 13.6665C6.08337 12.9761 6.64302 12.4165 7.33337 12.4165C8.02373 12.4165 8.58337 12.9761 8.58337 13.6665Z" fill="#700000"/>
<path d="M15.25 13.6665C15.25 14.3569 14.6904 14.9165 14 14.9165C13.3097 14.9165 12.75 14.3569 12.75 13.6665C12.75 12.9761 13.3097 12.4165 14 12.4165C14.6904 12.4165 15.25 12.9761 15.25 13.6665Z" fill="#700000"/>
<path d="M21.9167 13.6665C21.9167 14.3569 21.3571 14.9165 20.6667 14.9165C19.9764 14.9165 19.4167 14.3569 19.4167 13.6665C19.4167 12.9761 19.9764 12.4165 20.6667 12.4165C21.3571 12.4165 21.9167 12.9761 21.9167 13.6665Z" fill="#700000"/>
<path d="M8.58337 20.3333C8.58337 21.0236 8.02373 21.5833 7.33337 21.5833C6.64302 21.5833 6.08337 21.0236 6.08337 20.3333C6.08337 19.6429 6.64302 19.0833 7.33337 19.0833C8.02373 19.0833 8.58337 19.6429 8.58337 20.3333Z" fill="#700000"/>
<path d="M15.25 20.3333C15.25 21.0236 14.6904 21.5833 14 21.5833C13.3097 21.5833 12.75 21.0236 12.75 20.3333C12.75 19.6429 13.3097 19.0833 14 19.0833C14.6904 19.0833 15.25 19.6429 15.25 20.3333Z" fill="#700000"/>
<path d="M21.9167 20.3333C21.9167 21.0236 21.3571 21.5833 20.6667 21.5833C19.9764 21.5833 19.4167 21.0236 19.4167 20.3333C19.4167 19.6429 19.9764 19.0833 20.6667 19.0833C21.3571 19.0833 21.9167 19.6429 21.9167 20.3333Z" fill="#700000"/>
<path d="M8.58337 27C8.58337 27.6904 8.02373 28.25 7.33337 28.25C6.64302 28.25 6.08337 27.6904 6.08337 27C6.08337 26.3096 6.64302 25.75 7.33337 25.75C8.02373 25.75 8.58337 26.3096 8.58337 27Z" fill="#700000"/>
<path d="M15.25 27C15.25 27.6904 14.6904 28.25 14 28.25C13.3097 28.25 12.75 27.6904 12.75 27C12.75 26.3096 13.3097 25.75 14 25.75C14.6904 25.75 15.25 26.3096 15.25 27Z" fill="#700000"/>
<path d="M21.9167 27C21.9167 27.6904 21.3571 28.25 20.6667 28.25C19.9764 28.25 19.4167 27.6904 19.4167 27C19.4167 26.3096 19.9764 25.75 20.6667 25.75C21.3571 25.75 21.9167 26.3096 21.9167 27Z" fill="#700000"/>
</svg>
