<svg width="36" height="35" viewBox="0 0 36 35" fill="none" xmlns="http://www.w3.org/2000/svg">
<path opacity="0.4" d="M31.3332 11.3333C33.1742 11.3333 34.6666 12.8256 34.6666 14.6666L34.6666 31.3333C34.6666 33.1742 33.1742 34.6666 31.3332 34.6666C29.4923 34.6666 27.9999 33.1742 27.9999 31.3333L27.9999 14.6666C27.9999 12.8256 29.4923 11.3333 31.3332 11.3333Z" fill="#700000"/>
<path opacity="0.4" d="M4.66666 24.6665C6.50761 24.6665 7.99999 26.1589 7.99999 27.9998V31.3332C7.99999 33.1741 6.50761 34.6665 4.66666 34.6665C2.82571 34.6665 1.33333 33.1741 1.33333 31.3332L1.33333 27.9998C1.33333 26.1589 2.82571 24.6665 4.66666 24.6665Z" fill="#700000"/>
<path opacity="0.4" d="M18 18C19.841 18 21.3333 19.4924 21.3333 21.3333L21.3333 31.3333C21.3333 33.1743 19.841 34.6667 18 34.6667C16.1591 34.6667 14.6667 33.1743 14.6667 31.3333L14.6667 21.3333C14.6667 19.4924 16.1591 18 18 18Z" fill="#700000"/>
<path fill-rule="evenodd" clip-rule="evenodd" d="M28.4166 1.33325C28.4166 0.642896 28.9762 0.083252 29.6666 0.083252H32.9999C34.6108 0.083252 35.9166 1.38909 35.9166 2.99992V6.33325C35.9166 7.02361 35.357 7.58325 34.6666 7.58325C33.9762 7.58325 33.4166 7.02361 33.4166 6.33325V4.26844C26.945 9.45261 21.9268 12.8205 17.0679 15.0741C12.0985 17.3789 7.35574 18.4905 1.4917 19.2398C0.806915 19.3273 0.18085 18.8431 0.0933473 18.1584C0.00584513 17.4736 0.490041 16.8475 1.17483 16.76C6.88099 16.0309 11.3536 14.9686 16.016 12.8061C20.5312 10.7119 25.2801 7.56018 31.5208 2.58325H29.6666C28.9762 2.58325 28.4166 2.02361 28.4166 1.33325Z" fill="#700000"/>
</svg>
