<svg width="40" height="40" viewBox="0 0 40 40" fill="none" xmlns="http://www.w3.org/2000/svg">
<path opacity="0.4" d="M23.4765 11.6666L16.5235 11.6666L14.1884 8.98818C11.8993 6.36263 14.5697 2.43821 17.9118 3.51633L19.458 4.01515C19.8101 4.12872 20.1899 4.12872 20.5419 4.01515L22.0882 3.51633C25.4302 2.43821 28.1007 6.36263 25.8116 8.98818L23.4765 11.6666Z" fill="#700000"/>
<path opacity="0.4" d="M9.47379 17.0172C10.7784 12.8425 14.6447 10 19.0186 10H20.9814C25.3553 10 29.2216 12.8425 30.5262 17.0173L32.6096 23.6839C34.6219 30.1232 29.8112 36.6667 23.0648 36.6667H16.9353C10.1889 36.6667 5.37817 30.1232 7.39046 23.6839L9.47379 17.0172Z" fill="#700000"/>
<path d="M24.1666 24.1666C24.1666 21.8654 22.3012 19.9999 20 19.9999C17.6988 19.9999 15.8333 21.8654 15.8333 24.1666C15.8333 26.4678 17.6988 28.3333 20 28.3333C22.3012 28.3333 24.1666 26.4678 24.1666 24.1666Z" fill="#700000"/>
</svg>
