<svg width="40" height="40" viewBox="0 0 40 40" fill="none" xmlns="http://www.w3.org/2000/svg">
<path opacity="0.4" d="M21.4142 6.66675H18.5859C17.0238 6.66675 15.7576 7.86066 15.7576 9.33342C15.7576 11.0188 13.9543 12.0903 12.4741 11.2845L12.3237 11.2026C10.971 10.4663 9.24122 10.9033 8.46021 12.1787L7.04607 14.4881C6.26505 15.7636 6.72854 17.3945 8.08129 18.1308C9.56224 18.937 9.56224 21.0632 8.08129 21.8693C6.72854 22.6057 6.26505 24.2366 7.04606 25.5121L8.46021 27.8215C9.24122 29.0969 10.971 29.5339 12.3237 28.7975L12.4741 28.7157C13.9543 27.9099 15.7576 28.9814 15.7576 30.6667C15.7576 32.1395 17.0238 33.3334 18.5859 33.3334H21.4142C22.9762 33.3334 24.2424 32.1395 24.2424 30.6667C24.2424 28.9814 26.0457 27.9099 27.5259 28.7157L27.6763 28.7975C29.029 29.5339 30.7588 29.0969 31.5398 27.8214L32.9539 25.512C33.735 24.2366 33.2715 22.6057 31.9187 21.8693C30.4378 21.0631 30.4378 18.937 31.9187 18.1309C33.2715 17.3945 33.735 15.7636 32.9539 14.4881L31.5398 12.1787C30.7588 10.9033 29.029 10.4663 27.6763 11.2027L27.5259 11.2845C26.0457 12.0903 24.2424 11.0188 24.2424 9.33341C24.2424 7.86066 22.9762 6.66675 21.4142 6.66675Z" fill="#700000"/>
<path d="M25 20C25 22.7614 22.7614 25 20 25C17.2386 25 15 22.7614 15 20C15 17.2386 17.2386 15 20 15C22.7614 15 25 17.2386 25 20Z" fill="#700000"/>
</svg>
