<svg width="1045" height="40" viewBox="0 0 1045 40" fill="none" xmlns="http://www.w3.org/2000/svg">
<rect width="991" height="4" transform="translate(34 18)" fill="#D9D9D9"/>
<rect width="244" height="4" transform="translate(34 18)" fill="#700000"/>
<path d="M20 0L37.3205 10V30L20 40L2.67949 30V10L20 0Z" fill="#700000"/>
<path d="M20.02 27V15.06L17.5 16.12V14.36L20.74 13H22V27H20.02Z" fill="white"/>
<path d="M187.5 0L204.821 10V30L187.5 40L170.179 30V10L187.5 0Z" fill="#700000"/>
<path d="M182.48 27V25.6L188.16 19.56C188.547 19.16 188.847 18.8 189.06 18.48C189.273 18.16 189.42 17.86 189.5 17.58C189.593 17.2867 189.64 16.98 189.64 16.66C189.64 16.0333 189.387 15.5133 188.88 15.1C188.373 14.6867 187.733 14.48 186.96 14.48C186.32 14.48 185.72 14.6067 185.16 14.86C184.6 15.1133 183.98 15.5533 183.3 16.18L182.22 14.86C182.967 14.1667 183.733 13.6467 184.52 13.3C185.32 12.9533 186.147 12.78 187 12.78C187.893 12.78 188.68 12.94 189.36 13.26C190.04 13.58 190.567 14.0267 190.94 14.6C191.327 15.16 191.52 15.8067 191.52 16.54C191.52 17.0067 191.46 17.44 191.34 17.84C191.22 18.2267 191.013 18.64 190.72 19.08C190.427 19.5067 190.013 20 189.48 20.56L184.92 25.36L191.8 25.34V27H182.48Z" fill="white"/>
<path d="M355 0L372.321 10V30L355 40L337.679 30V10L355 0Z" fill="#D9D9D9"/>
<path d="M354.8 27.22C353.8 27.22 352.86 27.0467 351.98 26.7C351.113 26.34 350.36 25.8267 349.72 25.16L351.02 23.92C351.58 24.5067 352.147 24.9267 352.72 25.18C353.307 25.42 353.993 25.54 354.78 25.54C355.407 25.54 355.96 25.4333 356.44 25.22C356.933 25.0067 357.313 24.7133 357.58 24.34C357.847 23.9667 357.98 23.5333 357.98 23.04C357.98 22.5867 357.86 22.1867 357.62 21.84C357.393 21.48 357.08 21.2067 356.68 21.02C356.293 20.82 355.833 20.72 355.3 20.72H353.6V19.1H355.16C355.867 19.1 356.433 18.8933 356.86 18.48C357.287 18.0667 357.5 17.5267 357.5 16.86C357.5 16.42 357.38 16.02 357.14 15.66C356.9 15.3 356.567 15.02 356.14 14.82C355.727 14.6067 355.253 14.5 354.72 14.5C354.013 14.5 353.387 14.6267 352.84 14.88C352.307 15.12 351.753 15.5467 351.18 16.16L349.88 14.92C350.52 14.2267 351.26 13.7 352.1 13.34C352.94 12.9667 353.827 12.78 354.76 12.78C355.667 12.78 356.467 12.9467 357.16 13.28C357.867 13.6133 358.42 14.08 358.82 14.68C359.233 15.2667 359.44 15.9333 359.44 16.68C359.44 17.4133 359.193 18.0733 358.7 18.66C358.22 19.2333 357.587 19.6333 356.8 19.86C357.747 20.06 358.5 20.46 359.06 21.06C359.62 21.6467 359.9 22.34 359.9 23.14C359.9 23.9267 359.68 24.6267 359.24 25.24C358.813 25.8533 358.213 26.34 357.44 26.7C356.667 27.0467 355.787 27.22 354.8 27.22Z" fill="#999999"/>
<path d="M522.5 0L539.821 10V30L522.5 40L505.179 30V10L522.5 0Z" fill="#D9D9D9"/>
<path d="M523.98 27V23.44H516.04V21.86L523.74 13H525.96V21.76H527.66V23.44H525.96V27H523.98ZM518.4 21.76H523.98V15.34L518.4 21.76Z" fill="#999999"/>
<path d="M690 0L707.321 10V30L690 40L672.679 30V10L690 0Z" fill="#D9D9D9"/>
<path d="M689.6 27.22C687.733 27.22 686.113 26.5867 684.74 25.32L685.92 24C686.52 24.5467 687.113 24.9467 687.7 25.2C688.3 25.44 688.953 25.56 689.66 25.56C690.3 25.56 690.853 25.44 691.32 25.2C691.787 24.9467 692.153 24.6 692.42 24.16C692.687 23.7067 692.82 23.1933 692.82 22.62C692.82 21.78 692.52 21.1 691.92 20.58C691.333 20.06 690.567 19.8 689.62 19.8C689.14 19.8 688.66 19.8667 688.18 20C687.713 20.12 687.227 20.3067 686.72 20.56L685.38 20.16L685.7 13H694.02V14.66H687.34L687.14 19C687.647 18.7467 688.14 18.5667 688.62 18.46C689.1 18.34 689.607 18.28 690.14 18.28C691.073 18.28 691.88 18.46 692.56 18.82C693.253 19.1667 693.793 19.66 694.18 20.3C694.567 20.94 694.76 21.68 694.76 22.52C694.76 23.4533 694.54 24.2733 694.1 24.98C693.673 25.6733 693.073 26.22 692.3 26.62C691.527 27.02 690.627 27.22 689.6 27.22Z" fill="#999999"/>
<path d="M857.5 0L874.821 10V30L857.5 40L840.179 30V10L857.5 0Z" fill="#D9D9D9"/>
<path d="M858.2 27.2C857.08 27.2 856.093 26.9133 855.24 26.34C854.387 25.7667 853.72 24.9733 853.24 23.96C852.76 22.9333 852.52 21.7467 852.52 20.4C852.52 18.8667 852.787 17.5333 853.32 16.4C853.853 15.2533 854.6 14.3667 855.56 13.74C856.533 13.1 857.667 12.78 858.96 12.78C859.6 12.78 860.233 12.88 860.86 13.08C861.5 13.2667 862.053 13.54 862.52 13.9L861.5 15.32C861.087 15.0533 860.653 14.8533 860.2 14.72C859.76 14.5867 859.293 14.52 858.8 14.52C857.893 14.52 857.113 14.7533 856.46 15.22C855.82 15.6733 855.327 16.3333 854.98 17.2C854.633 18.0667 854.453 19.1133 854.44 20.34C854.933 19.6867 855.527 19.18 856.22 18.82C856.913 18.4467 857.633 18.26 858.38 18.26C859.3 18.26 860.113 18.4467 860.82 18.82C861.527 19.18 862.08 19.6867 862.48 20.34C862.88 20.9933 863.08 21.74 863.08 22.58C863.08 23.46 862.867 24.2533 862.44 24.96C862.013 25.6533 861.433 26.2 860.7 26.6C859.967 27 859.133 27.2 858.2 27.2ZM858.1 19.8C857.407 19.8 856.747 19.96 856.12 20.28C855.507 20.6 854.973 21.04 854.52 21.6C854.64 22.3867 854.86 23.08 855.18 23.68C855.513 24.2667 855.933 24.7267 856.44 25.06C856.947 25.38 857.513 25.54 858.14 25.54C858.727 25.54 859.247 25.4133 859.7 25.16C860.153 24.9067 860.507 24.56 860.76 24.12C861.027 23.68 861.16 23.18 861.16 22.62C861.16 22.0733 861.027 21.5867 860.76 21.16C860.507 20.7333 860.147 20.4 859.68 20.16C859.227 19.92 858.7 19.8 858.1 19.8Z" fill="#999999"/>
<path d="M1025 0L1042.32 10V30L1025 40L1007.68 30V10L1025 0Z" fill="#D9D9D9"/>
<path d="M1021.08 27L1027.76 14.7H1019.6V13H1029.84V14.46L1023.32 27H1021.08Z" fill="#999999"/>
</svg>
